<svg xmlns="http://www.w3.org/2000/svg" xmlns:xlink="http://www.w3.org/1999/xlink" width="250" height="250"  viewBox="30 70 90 110">
		<style>.cls-5{fill:#fff;}</style><path class="cls-5" d="M64.51,152.12h-12a2,2,0,0,0,0,4h12a2,2,0,0,0,0-4Z"/><path class="cls-5" d="M54,132.61H43.81a1.91,1.91,0,1,0,0,3.82H54a1.91,1.91,0,1,0,0-3.82Z"/><path class="cls-5" d="M101.24,126.3A17.06,17.06,0,0,0,95.42,125a31.56,31.56,0,0,0-3.84.35,12.47,12.47,0,0,0-4.25,1.91V112.76a1.91,1.91,0,1,0-3.82,0v3.17a8.23,8.23,0,0,0-2-1.6,9.66,9.66,0,0,0-4.79-1.15,15.2,15.2,0,0,0-4.48.72,1.92,1.92,0,0,0-1.23,2.2c.12.55,1.27,5.53,5.16,7.73A9.66,9.66,0,0,0,80.91,125a13.76,13.76,0,0,0,2.57-.25v2.53c-3.84-2.73-8.76-3.06-13.89-.95-9.21,3.82-12.41,12.07-8.78,22.63a40.69,40.69,0,0,0,5.43,10.3l3.12,3.8s.06.06.08.1q.71.74,1.42,1.42c.6.55,1.19,1.07,1.81,1.54,3,2.32,6,3.58,8.69,3.58a8.4,8.4,0,0,0,3.21-.62,6.14,6.14,0,0,0,.82-.41,7.66,7.66,0,0,0,.82.41,8.33,8.33,0,0,0,3.21.62c8,0,17.1-10.73,20.57-20.74C113.68,138.37,110.47,130.11,101.24,126.3ZM78,120.45a7,7,0,0,1-2.69-3.37,7.86,7.86,0,0,1,4.28.55A7,7,0,0,1,82.31,121,7.44,7.44,0,0,1,78,120.45Zm28.36,27.23c-2.59,7.52-8.55,15-13.87,17.39a6.08,6.08,0,0,1-4.81.45,4.46,4.46,0,0,1-1.09-.7,1.93,1.93,0,0,0-2.38,0,5,5,0,0,1-1.09.68,6,6,0,0,1-4.79-.43c-5.32-2.38-11.3-9.87-13.89-17.39C60.71,136.77,66,132,71.09,129.84c5.32-2.2,9.74-1.11,12.81,3.14l.1.1a1.62,1.62,0,0,0,.41.35l0,0a1.15,1.15,0,0,0,.16.1,2,2,0,0,0,.8.18,1.83,1.83,0,0,0,.8-.18l.18-.1s0,0,0,0a1.46,1.46,0,0,0,.41-.37.46.46,0,0,0,.1-.1c3-4.25,7.46-5.34,12.78-3.14C104.88,132,110.16,136.77,106.4,147.68Z"/><path class="cls-5" d="M93.51,83.74H80.19V79.6a1.92,1.92,0,0,0-1.91-1.91H72A9,9,0,0,0,63,69a8.86,8.86,0,0,0-6.31,2.61,8.76,8.76,0,0,0-2.61,6.08H47.8a1.92,1.92,0,0,0-1.91,1.91v4.13H32.55a1.92,1.92,0,0,0-1.91,1.91v75.5A1.92,1.92,0,0,0,32.55,163H69.42l0,0-3.12-3.8H34.46V87.58H45.87v3.17a1.92,1.92,0,0,0,1.91,1.91H78.26a1.92,1.92,0,0,0,1.91-1.91V87.58H91.58V125.3c.72,0,3.29.29,3.84.16V85.67A1.91,1.91,0,0,0,93.51,83.74Zm-17.16,5.1H49.71v-7.3h6.54a1.92,1.92,0,0,0,1.52-.74,2,2,0,0,0,.35-1.64A4.75,4.75,0,0,1,58,77.92a5.1,5.1,0,0,1,10.19,0A4.85,4.85,0,0,1,68,79.15a1.9,1.9,0,0,0,.35,1.64,1.92,1.92,0,0,0,1.52.74h6.54v7.3Z"/><path class="cls-5" d="M63.65,118.1H43.79a1.91,1.91,0,0,0,0,3.82H63.65A1.92,1.92,0,0,0,65.56,120,1.89,1.89,0,0,0,63.65,118.1Z"/><path class="cls-5" d="M41.88,105.5a1.92,1.92,0,0,0,1.91,1.91H82.27a1.91,1.91,0,0,0,0-3.82H43.79A1.91,1.91,0,0,0,41.88,105.5Z"/></svg>