<?xml version="1.0" encoding="utf-8"?>
<!-- Generator: Adobe Illustrator 21.0.0, SVG Export Plug-In . SVG Version: 6.00 Build 0)  -->
<svg version="1.1" id="Шар_1" xmlns="http://www.w3.org/2000/svg" xmlns:xlink="http://www.w3.org/1999/xlink" x="0px" y="0px"
	 viewBox="0 0 512 512" style="enable-background:new 0 0 512 512;" xml:space="preserve">
<style type="text/css">
	.st0{fill:#FF9D00;}
	.st1{fill:#FFFFFF;}
	.st2{fill:#FF8203;}
</style>
<title>Здоровье и иммунитет</title>
<circle class="st0" cx="256" cy="256" r="256"/>
<g>
	<path class="st1" d="M251,375.2h-45.5c-4.2,0-7.6,3.4-7.6,7.6s3.4,7.6,7.6,7.6H251c4.2,0,7.6-3.4,7.6-7.6S255.2,375.2,251,375.2z"
		/>
	<path class="st1" d="M211.2,301.2h-38.6c-4,0-7.2,3.2-7.2,7.2c0,4,3.2,7.2,7.2,7.2h38.6c4,0,7.2-3.2,7.2-7.2
		C218.5,304.5,215.2,301.2,211.2,301.2z"/>
	<path class="st2" d="M390.2,277.3c-7-2.9-14.5-4.6-22.1-4.9c-4.9,0.1-9.7,0.6-14.6,1.3c-5.8,1.4-11.2,3.8-16.1,7.2V226
		c0-4-3.2-7.2-7.2-7.2c-4,0-7.2,3.2-7.2,7.2c0,0,0,0,0,0v12c-2.2-2.4-4.8-4.4-7.6-6.1c-5.6-3-11.8-4.5-18.2-4.4
		c-5.8,0.1-11.5,1-17,2.7c-3.4,1.2-5.4,4.8-4.7,8.3c0.5,2.1,4.8,21,19.6,29.3c5.5,3,11.7,4.5,18,4.4c3.3,0,6.5-0.3,9.7-0.9v9.6
		c-14.6-10.3-33.2-11.6-52.6-3.6c-34.9,14.5-47,45.7-33.3,85.8c5,13.9,11.9,27.1,20.6,39l11.8,14.4c0,0,0.2,0.2,0.3,0.4
		c1.8,1.9,3.6,3.7,5.4,5.4c2.3,2.1,4.5,4.1,6.9,5.8c11.4,8.8,22.7,13.6,32.9,13.6c4.2,0,8.3-0.8,12.2-2.3c1.1-0.4,2.1-1,3.1-1.6
		c1,0.6,2,1.1,3.1,1.6c3.9,1.6,8,2.4,12.2,2.3c30.3,0,64.8-40.7,77.9-78.6C437.4,323.1,425.2,291.8,390.2,277.3z M302.2,255.2
		c-4.7-3.1-8.2-7.5-10.2-12.8c5.5-0.8,11.1-0.1,16.2,2.1c4.7,3.1,8.3,7.5,10.3,12.8C313,258.2,307.3,257.5,302.2,255.2z
		 M409.6,358.4c-9.8,28.5-32.4,56.8-52.6,65.9c-5.6,3.1-12.2,3.7-18.2,1.7c-1.5-0.7-2.9-1.6-4.1-2.7c-2.6-2.1-6.4-2.1-9,0
		c-1.3,1-2.6,1.9-4.1,2.6c-6,2-12.6,1.4-18.2-1.6c-20.2-9-42.8-37.4-52.6-65.9c-14.1-41.3,5.9-59.4,25.2-67.6
		c20.2-8.3,36.9-4.2,48.5,11.9l0.4,0.4c0.4,0.5,1,1,1.6,1.3l0,0c0.2,0.1,0.4,0.3,0.6,0.4c1,0.4,2,0.7,3,0.7c1,0,2.1-0.2,3-0.7
		l0.7-0.4l0,0c0.6-0.4,1.1-0.8,1.6-1.4c0.1-0.1,0.3-0.2,0.4-0.4c11.4-16.1,28.3-20.2,48.4-11.9c19.9,8.3,39.9,26.3,25.6,67.7H409.6z
		"/>
	<path class="st1" d="M360.9,116.1h-50.5v-15.7c0-4-3.2-7.2-7.2-7.2h-23.8c-0.6-18.4-15.7-32.9-34.1-32.9c-9,0-17.6,3.5-23.9,9.9
		c-6.2,6.1-9.7,14.4-9.9,23h-23.8c-4,0-7.2,3.2-7.2,7.2V116h-50.6c-4,0-7.2,3.2-7.2,7.2v286.1c0.1,3.9,3.3,7,7.2,7h139.7l0,0
		L257.8,402H137.2V130.6h43.2v12c0,4,3.2,7.2,7.2,7.2h115.5c4,0,7.2-3.2,7.2-7.2v-12h43.2v142.9c2.7,0,12.5,1.1,14.6,0.6V123.4
		C368.2,119.4,365,116.1,360.9,116.1C361,116.1,361,116.1,360.9,116.1z M295.9,135.4H195v-27.7h24.8c2.3,0,4.4-1,5.8-2.8
		c1.3-1.8,1.8-4,1.3-6.2c-0.4-1.5-0.5-3.1-0.5-4.7c0.5-10.7,9.5-18.9,20.2-18.5c10,0.4,18,8.5,18.5,18.5c0,1.6-0.3,3.1-0.7,4.7
		c-0.5,2.2-0.1,4.5,1.3,6.2c1.4,1.8,3.5,2.8,5.8,2.8h24.8v27.7L295.9,135.4z"/>
	<path class="st1" d="M247.8,246.3h-75.3c-4,0-7.2,3.2-7.2,7.2c0,4,3.2,7.2,7.2,7.2h75.3c4,0,7.2-3.3,7.2-7.3c0-4-3.2-7.2-7.1-7.2
		C247.9,246.3,247.8,246.3,247.8,246.3z"/>
	<path class="st1" d="M165.3,198.5c0,4,3.2,7.2,7.2,7.2h145.8c4,0,7.2-3.2,7.2-7.2c0-4-3.2-7.2-7.2-7.2H172.5
		C168.5,191.3,165.3,194.5,165.3,198.5z"/>
</g>
</svg>
