<?xml version="1.0" encoding="utf-8"?>
<!-- Generator: Adobe Illustrator 21.0.0, SVG Export Plug-In . SVG Version: 6.00 Build 0)  -->
<svg version="1.1" id="Capa_1" xmlns="http://www.w3.org/2000/svg" xmlns:xlink="http://www.w3.org/1999/xlink" x="0px" y="0px"
	 viewBox="0 0 416.4 416.4" style="enable-background:new 0 0 416.4 416.4;" xml:space="preserve">
<style type="text/css">
	.st0{fill:#FF4A08;}
	.st1{fill:#FFFFFF;}
</style>
<path class="st0" d="M361.3,416.4L361.3,416.4l-345.3-0.5c-8.9,0-15.7-6.8-15.7-15.7L0.8,54.9c0-8.9,6.8-15.7,15.7-15.7h197.5
	c8.9,0,15.7,6.8,15.7,15.7s-6.8,15.7-15.7,15.7H32.1l-0.5,314l314,0.5V203.2c0-8.9,6.8-15.7,15.7-15.7c8.9,0,15.7,6.8,15.7,15.7
	v197.5c0,4.2-1.6,8.4-4.7,11C369.6,414.8,365.5,416.4,361.3,416.4z"/>
<path class="st1" d="M415.6,13.1c0-0.5-0.5-1-0.5-1.6s-0.5-1-0.5-1.6s-0.5-1-1-1.6c0-0.5-0.5-0.5-0.5-1c-1-1.6-2.6-3.1-4.2-4.2
	c-0.5,0-0.5-0.5-1-0.5c-0.5-0.5-1-0.5-1.6-1c-0.5,0-1-0.5-1.6-0.5c-0.5,0-1-0.5-1.6-0.5c-1,0-2.1-0.5-3.1-0.5H287.6
	c-8.9,0-15.7,6.8-15.7,15.7s6.8,15.7,15.7,15.7h75.2l-175,175.5c-6.3,6.3-6.3,16.2,0,21.9c3.1,3.1,7.3,4.7,11,4.7s7.8-1.6,11-4.7
	l175-175v75.8c0,8.9,6.8,15.7,15.7,15.7s15.7-6.8,15.7-15.7V16.2C416.1,15.2,416.1,14.1,415.6,13.1z"/>
</svg>
