<svg xmlns="http://www.w3.org/2000/svg" viewBox="0 0 512 512"><defs><style>.cls-1{fill:#ff9d00;}.cls-2{fill:#fff;}.cls-3{fill:#ff8203;}</style></defs><title>Здоровье и иммунитет</title><g id="Шар_2" data-name="Шар 2"><g id="Шар_1-2" data-name="Шар 1"><circle class="cls-1" cx="256" cy="256" r="256"/><path class="cls-2" d="M255.17,435.58l-1.91-.9c-.46-.22-47-22.26-92.85-62-27-23.41-48.56-48.33-64-74C76.92,266.27,67,232.56,67,198.42a98.78,98.78,0,0,1,188.13-42.12A98.78,98.78,0,0,1,443.3,198.42c0,34.14-9.87,67.86-29.34,100.21-15.47,25.72-37,50.64-64,74-45.85,39.74-92.38,61.79-92.85,62ZM165.82,108.64A89.88,89.88,0,0,0,76,198.42c0,73.74,49.08,131.77,90.26,167.46a452.63,452.63,0,0,0,88.87,59.72,453.28,453.28,0,0,0,89-59.87c41.1-35.67,90.1-93.65,90.1-167.32a89.78,89.78,0,0,0-174.86-28.64l-4.26,12.67-4.26-12.67A89.7,89.7,0,0,0,165.82,108.64Z"/><path class="cls-3" d="M228.33,346.25a7.93,7.93,0,0,1-7.77-6.36l-17.65-87.7L198,276a7.93,7.93,0,0,1-7.77,6.34l-151.11.84V268.56l144.63-2,11.39-55.86a7.93,7.93,0,0,1,7.77-6.34h0a7.93,7.93,0,0,1,7.77,6.36l17.43,86.6,9-46.89a7.93,7.93,0,0,1,15.54-.14l3.43,16.27h13.24l17.21-51.25a7.93,7.93,0,0,1,15.4,1.64l6.53,58.34.38-2.17a7.93,7.93,0,0,1,7.81-6.56l164.43-1.43v17.29H323.4l-8.76,50.16a7.93,7.93,0,0,1-7.81,6.56h-.25a7.93,7.93,0,0,1-7.64-7l-8.7-77.76L282.62,277a7.93,7.93,0,0,1-7.52,5.4H249.74a7.92,7.92,0,0,1-2.48-.4l-11.14,57.83a7.93,7.93,0,0,1-7.75,6.43Z"/></g></g></svg>