<svg xmlns="http://www.w3.org/2000/svg" viewBox="0 0 512 512"><defs><style>.cls-1{fill:#ff8203;}.cls-2{fill:#ff9d00;}.cls-3{fill:#fff;}</style></defs><title>Мышление и память</title><g id="Шар_2" data-name="Шар 2"><g id="Шар_1-2" data-name="Шар 1"><path class="cls-1" d="M425.42,229.36A20.83,20.83,0,0,0,410,236.1l-7.8,8.4V183.88h-133v39a30,30,0,1,1,0,55.12v39H327.8l-7.3,7.61a21,21,0,1,0,30.37,0l-7.3-7.61H402.2V256.31l7.8,8.4a20.83,20.83,0,0,0,15.42,6.73,21,21,0,1,0,0-42.08Z"/><path class="cls-2" d="M230.59,229.32A20.94,20.94,0,0,0,216,235.17l-7.61,7.3V183.84H147.82l8.4-7.8a20.83,20.83,0,0,0,6.73-15.42,21,21,0,0,0-42.08,0A20.83,20.83,0,0,0,127.6,176l8.4,7.8H75.39v133h39a30,30,0,1,1,55.12,0h39V258.24l7.61,7.3a21,21,0,1,0,14.55-36.22Z"/><path class="cls-2" d="M256,0C114.61,0,0,114.62,0,256S114.61,512,256,512,512,397.38,512,256,397.38,0,256,0ZM230.6,280.4a29.92,29.92,0,0,1-13.17-3v48.52H151.77l6.23-7.4a21,21,0,1,0-32.19,0l6.24,7.4H66.39v-151h49.07a30,30,0,1,1,52.9,0h49.07v48.51a30,30,0,1,1,13.17,57Zm194.82,0a30.07,30.07,0,0,1-14.22-3.59v49.07H362.69a30,30,0,1,1-54,0H260.16V260.26l7.4,6.23a21,21,0,1,0,0-32.19l-7.4,6.23V174.88h151V224a30,30,0,1,1,14.22,56.49Z"/><path class="cls-3" d="M230.59,220.32a29.92,29.92,0,0,0-13.17,3V174.84H168.36a30,30,0,1,0-52.9,0H66.39v151H132l-6.24-7.4a21,21,0,1,1,32.19,0l-6.23,7.4h65.66V277.36a30,30,0,1,0,13.17-57Zm0,51.08A20.94,20.94,0,0,1,216,265.54l-7.61-7.3v58.64h-39a30,30,0,1,0-55.12,0h-39v-133H136l-8.4-7.8a20.83,20.83,0,0,1-6.73-15.42,21,21,0,0,1,42.08,0A20.83,20.83,0,0,1,156.21,176l-8.4,7.8h60.61v58.63l7.61-7.3A21,21,0,1,1,230.6,271.4Z"/><path class="cls-3" d="M425.42,220.36A30.07,30.07,0,0,0,411.2,224V174.88h-151v65.66l7.4-6.23a21,21,0,1,1,0,32.19l-7.4-6.23v65.66h48.51a30,30,0,1,0,54,0H411.2V276.85a30,30,0,1,0,14.22-56.49Zm0,51.08A20.83,20.83,0,0,1,410,264.71l-7.8-8.4v60.61H343.57l7.3,7.61a21,21,0,1,1-30.37,0l7.3-7.61H269.16V278a30,30,0,1,0,0-55.12v-39h133V244.5l7.8-8.4a20.83,20.83,0,0,1,15.42-6.73,21,21,0,1,1,0,42.08Z"/></g></g></svg>