<svg xmlns="http://www.w3.org/2000/svg" viewBox="0 0 512 512"><defs><style>.cls-1{fill:#ff8203;}.cls-2{fill:#ff9d00;}.cls-3{fill:#fff;}</style></defs><title>Фигуру </title><g id="Шар_2" data-name="Шар 2"><g id="Шар_1-2" data-name="Шар 1"><path class="cls-1" d="M128.32,265.73a252.12,252.12,0,0,0-12.78,38.76l129.38,65.93H274l124.57-65.2a251.57,251.57,0,0,0-13-39.49Z"/><path class="cls-2" d="M359.92,217.16a150.78,150.78,0,0,1-23.68-81.08c0-11.7,13.84-73.38,23.32-114.25a256.71,256.71,0,0,0-196.71-4.35c6.33,45,14.82,107.55,14.82,118.55A150.82,150.82,0,0,1,154,217.16a333.71,333.71,0,0,0-21.71,39.57H381.64A333.72,333.72,0,0,0,359.92,217.16Z"/><path class="cls-2" d="M109.75,352.12c0,29.35,10.69,81.26,23,128.29a254.45,254.45,0,0,0,106.59,31V377.68l-125.78-64.1A201.51,201.51,0,0,0,109.75,352.12Z"/><path class="cls-2" d="M105.22,309.34h0l.53-2.37a259.78,259.78,0,0,1,16.42-49.7l.23-.52h0a339,339,0,0,1,24-44.41,141.83,141.83,0,0,0,22.28-76.27c0-10.25-8.16-70.42-14.41-115C63.49,60.39,0,150.77,0,256A255.83,255.83,0,0,0,121.87,474.07c-11.52-45.4-21.12-93.79-21.12-121.95A211.38,211.38,0,0,1,105.22,309.34Z"/><path class="cls-2" d="M279.58,510.91a254.42,254.42,0,0,0,109.48-36.17c8.64-51.74,15.1-100.62,15.1-122.62a201.25,201.25,0,0,0-3.65-37.76L279.58,377.65Z"/><path class="cls-2" d="M248.34,379.42V511.88c2.55.07,5.1.12,7.66.12,4.89,0,9.75-.15,14.58-.42V379.42Z"/><path class="cls-2" d="M512,256c0-101.26-58.79-188.77-144.1-230.3C357.8,69.36,345.24,126,345.24,136a141.82,141.82,0,0,0,22.27,76.29c20.82,32.71,34.59,65.17,41.15,96.94l.16.73h0a211.19,211.19,0,0,1,4.34,42.12c0,21.67-5.78,67-13.77,116A255.74,255.74,0,0,0,512,256Z"/><path class="cls-3" d="M109.75,352.12a201.51,201.51,0,0,1,3.81-38.54l-8.34-4.25a211.38,211.38,0,0,0-4.47,42.78c0,28.16,9.59,76.55,21.12,121.95q5.35,3.3,10.88,6.34C120.44,433.38,109.75,381.48,109.75,352.12Z"/><path class="cls-3" d="M279.58,377.65l-3.39,1.78H242.75l-3.42-1.74V511.45c3,.19,6,.34,9,.43V379.42h22.24V511.58q4.52-.25,9-.67Z"/><path class="cls-3" d="M408.82,310l-8.32,4.35a201.25,201.25,0,0,1,3.65,37.76c0,22-6.45,70.88-15.1,122.62q5.25-3.2,10.33-6.64c8-49,13.77-94.31,13.77-116A211.19,211.19,0,0,0,408.82,310Z"/><path class="cls-3" d="M121.21,259.45l.95-2.19A259.78,259.78,0,0,0,105.74,307l.23-1A260.34,260.34,0,0,1,121.21,259.45Z"/><path class="cls-3" d="M146.39,212.33a339,339,0,0,0-24,44.41h9.88A333.71,333.71,0,0,1,154,217.16,150.82,150.82,0,0,0,177.67,136c0-11-8.49-73.51-14.82-118.55q-4.34,1.7-8.6,3.55c6.25,44.6,14.41,104.77,14.41,115A141.83,141.83,0,0,1,146.39,212.33Z"/><path class="cls-3" d="M336.24,136.08a150.78,150.78,0,0,0,23.68,81.08,333.72,333.72,0,0,1,21.71,39.57h9.88l1.17,2.72a259.92,259.92,0,0,1,15.4,47.19l.58,2.63c-6.57-31.78-20.33-64.23-41.15-96.94A141.82,141.82,0,0,1,345.24,136c0-10,12.56-66.68,22.66-110.34q-4.13-2-8.34-3.87C350.08,62.7,336.24,124.37,336.24,136.08Z"/><path class="cls-3" d="M132.27,256.73a250.52,250.52,0,0,0-18.71,56.85l125.78,64.1v-7.26h40.24v7.22L400.5,314.36a250.06,250.06,0,0,0-18.86-57.63ZM274,370.42H244.92L115.53,304.49a252.12,252.12,0,0,1,12.78-38.76H385.59a251.57,251.57,0,0,1,13,39.49Z"/><path class="cls-3" d="M408.83,310l-.16-.73c.05.25.1.49.15.74Z"/><path class="cls-3" d="M122.38,256.73l-.23.52.23-.52Z"/><path class="cls-3" d="M105.21,309.33h0c.16-.79.34-1.59.51-2.38Z"/><path class="cls-3" d="M122.38,256.73l-.23.52-.95,2.19A260.34,260.34,0,0,0,106,305.93l-.23,1c-.17.79-.35,1.59-.51,2.38l8.34,4.25a250.52,250.52,0,0,1,18.71-56.85Z"/><polygon class="cls-3" points="239.34 370.43 239.34 377.68 242.75 379.42 276.19 379.43 279.58 377.65 279.58 370.43 239.34 370.43"/><path class="cls-3" d="M392.69,259.45l-1.17-2.72h-9.88a250.06,250.06,0,0,1,18.86,57.63l8.32-4.35c-.05-.25-.09-.49-.15-.74l-.58-2.63A259.92,259.92,0,0,0,392.69,259.45Z"/><rect class="cls-1" x="448.37" y="142.1" width="11.77" height="11.77"/><rect class="cls-1" x="424.84" y="142.1" width="11.77" height="11.77"/><polygon class="cls-1" points="394.82 127.08 384.3 121.82 371.21 147.98 384.3 174.14 394.82 168.88 387.31 153.86 413.09 153.86 413.09 142.1 387.31 142.1 394.82 127.08"/><rect class="cls-1" x="53.21" y="147.98" width="11.77" height="11.77"/><rect class="cls-1" x="76.74" y="147.98" width="11.77" height="11.77"/><polygon class="cls-1" points="126.03 147.98 100.25 147.98 100.25 159.75 126.03 159.75 118.53 174.76 129.05 180.02 142.13 153.86 129.05 127.7 118.53 132.96 126.03 147.98"/></g></g></svg>