<svg xmlns="http://www.w3.org/2000/svg" viewBox="0 0 512 512"><defs><style>.cls-1{fill:#ff9d00;}.cls-2{fill:none;}.cls-3{fill:#fff;}.cls-4{fill:#ff8203;}</style></defs><title>Самочувствие и настроение</title><g id="Шар_2" data-name="Шар 2"><g id="Шар_1-2" data-name="Шар 1"><circle class="cls-1" cx="256" cy="256" r="256"/><path class="cls-2" d="M367.75,433.36c-.46,13.91-.85,25.42-1.09,32.2l36.51-12.93-.34-.22A286.8,286.8,0,0,0,367.75,433.36Z"/><path class="cls-2" d="M138,285.37q-.55-6.22-.56-12.6V250l-.7-44.33.7-.06V127.79L374.54,141.7V272.76a142.19,142.19,0,0,1-3.27,30.41c0,19.55-1.81,77.8-3.2,120.46a294.57,294.57,0,0,1,36.55,19.27V164.58A148.72,148.72,0,0,0,210.44,23.11l-.68.22A148.13,148.13,0,0,0,107.41,164.58v278.3a295,295,0,0,1,32.8-17.58Z"/><path class="cls-2" d="M276.85,400.92a271.35,271.35,0,0,1,82.34,19c.93-28.53,2-63.15,2.6-88.45C345.23,367.3,314,393.65,276.85,400.92Z"/><path class="cls-2" d="M198.93,153.62c.05-.6.09-1.05.14-1.44v-.13l.16-.81,1.65-7,5.58,4.55a169.81,169.81,0,0,0,96.82,37.9c25.89,1.69,44.91,9.5,56.52,23.21a53,53,0,0,1,5.74,8.27v-68L146.45,137.33v67.42C178.21,200.48,196.33,182.89,198.93,153.62Z"/><path class="cls-2" d="M256,393.94c51.24,0,94.38-39.13,106.28-91.79,0-5.11.65-11.21,1.3-17.66,2.24-22.41,5-50.29-10.64-68.78-10-11.78-26.88-18.52-50.24-20a178.67,178.67,0,0,1-95.59-35c-5,30.21-26.3,48.87-60.65,53.14V250l.55,35C152.54,346.07,199.31,393.94,256,393.94Z"/><path class="cls-2" d="M147.64,325.54l1.51,95.85a271.91,271.91,0,0,1,86-20.47C196,393.26,163.39,364.39,147.64,325.54Z"/><path class="cls-2" d="M140.37,435.15a287.22,287.22,0,0,0-31.2,17.24l-.77.49,32.27,1.46Z"/><path class="cls-3" d="M145.88,213.9l.57,36.08V213.83Z"/><path class="cls-3" d="M137.45,272.76q0,6.38.56,12.6L137.45,250Z"/><path class="cls-3" d="M107.41,442.87V164.58A148.13,148.13,0,0,1,209.76,23.33l.68-.22A148.63,148.63,0,0,1,404.62,164.58V442.91c1,.63,2,1.26,3,1.9l6,3.79v-284A157.72,157.72,0,0,0,208.36,14.33l-.68.22a157.64,157.64,0,0,0-109.26,150v284l5.92-3.77C105.35,444.15,106.38,443.51,107.41,442.87Z"/><polygon class="cls-3" points="136.75 205.71 137.45 250.03 137.45 205.65 136.75 205.71"/><path class="cls-3" d="M146.45,272.76q0,6.17.55,12.19l-.55-35Z"/><path class="cls-3" d="M365.54,218.17a53,53,0,0,0-5.74-8.27c-11.62-13.71-30.63-21.52-56.52-23.21a169.81,169.81,0,0,1-96.82-37.9l-5.58-4.55-1.65,7-.16.81v.13c0,.39-.09.84-.14,1.44-2.6,29.27-20.72,46.85-52.48,51.13-1.79.24-3.62.45-5.51.61l-3.49.29V250l.56,35.33a139.31,139.31,0,0,0,9.63,40.18c15.75,38.84,48.32,67.71,87.5,75.38q8.79-.6,17.59-.61h6.52q8.8,0,17.59.61c37.16-7.27,68.38-33.62,84.94-69.46a137.51,137.51,0,0,0,9.48-28.29c0-.14,0-.29,0-.43,0-4.78.61-10.88,1.26-17.35C374.53,265.36,377.19,238.83,365.54,218.17ZM256,393.94c-56.69,0-103.45-47.87-109-109q-.55-6-.55-12.19V250l-.57-36.08.57-.08c34.36-4.27,55.62-22.92,60.65-53.14a178.67,178.67,0,0,0,95.59,35c23.36,1.52,40.26,8.27,50.24,20,15.67,18.5,12.88,46.38,10.64,68.78-.65,6.45-1.25,12.55-1.3,17.66C350.37,354.82,307.24,393.94,256,393.94Z"/><path class="cls-3" d="M367.75,433.36a286.8,286.8,0,0,1,35.08,19l.34.22,1.44-.51v-9.2a294.57,294.57,0,0,0-36.55-19.27Q367.9,428.66,367.75,433.36Z"/><path class="cls-3" d="M140.37,435.15l-.16-9.86a295,295,0,0,0-32.8,17.58v10l1,0,.77-.49A287.22,287.22,0,0,1,140.37,435.15Z"/><path class="cls-3" d="M252.73,400.31q-8.8,0-17.59.61a108.76,108.76,0,0,0,41.7,0q-8.79-.6-17.59-.61Z"/><path class="cls-3" d="M404.62,442.91v9.2l-1.44.51,9.36,6,1.08-.84V448.6l-6-3.79C406.65,444.17,405.63,443.54,404.62,442.91Z"/><path class="cls-3" d="M359.19,419.91c-.11,3.29-.21,6.49-.31,9.59q4.46,1.85,8.88,3.86.16-4.69.32-9.72Q363.65,421.69,359.19,419.91Z"/><path class="cls-3" d="M140.21,425.29l.16,9.86q4.44-2.11,8.94-4l-.15-9.72Q144.66,423.26,140.21,425.29Z"/><path class="cls-2" d="M252.73,409.31a252.86,252.86,0,0,0-46.44,4.34,51,51,0,0,0,3.48,13.43,51.94,51.94,0,0,0,99.55-12.72,253.22,253.22,0,0,0-50.07-5Z"/><path class="cls-2" d="M205.91,391.22v13.37q8.67-1.57,17.4-2.58Z"/><path class="cls-2" d="M285.65,401.69q12.12,1.24,24.15,3.6V378.34Z"/><path class="cls-3" d="M359.19,419.91A277.48,277.48,0,0,0,318.8,407.2v.22a61.17,61.17,0,0,1-.65,8.88,269.6,269.6,0,0,1,40.73,13.19C359,426.4,359.08,423.2,359.19,419.91Z"/><path class="cls-3" d="M196.91,406.36a277.46,277.46,0,0,0-47.75,15l.15,9.72a269.56,269.56,0,0,1,48.14-15.63,61.55,61.55,0,0,1-.54-8.05Z"/><path class="cls-3" d="M257.85,459.37a51.93,51.93,0,0,1-48.08-32.29,51,51,0,0,1-3.48-13.43c-3,.55-5.9,1.17-8.84,1.83a59.83,59.83,0,0,0,4,15,60.94,60.94,0,0,0,116.7-14.19c-2.93-.7-5.87-1.36-8.82-2A52,52,0,0,1,257.85,459.37Z"/><path class="cls-3" d="M309.8,382.89v22.4q4.51.89,9,1.92V379.63C315.85,380.8,312.86,381.91,309.8,382.89Z"/><path class="cls-3" d="M196.91,375v31.32c3-.65,6-1.24,9-1.78V391.22l.38-3.52c0-3.53,2.54-1.71,2.51-5.28Z"/><path class="cls-3" d="M205.91,407.43v-2.84c-3,.55-6,1.13-9,1.78v1.06a61.55,61.55,0,0,0,.54,8.05c2.94-.66,5.89-1.27,8.84-1.83A52.57,52.57,0,0,1,205.91,407.43Z"/><path class="cls-3" d="M318.8,407.2q-4.49-1-9-1.92v2.14a52.1,52.1,0,0,1-.48,6.93c2.95.59,5.89,1.25,8.82,2a61.17,61.17,0,0,0,.65-8.88Z"/><path class="cls-3" d="M317.3,275.87s8-6.33,22.88-19c16.07-13.75,18.49-33.58,2.06-41.38-15.17-7.2-24.93,9-24.93,9s-9.77-16.19-24.93-9c-16.43,7.8-14,27.63,2.06,41.38C309.25,269.54,317.3,275.87,317.3,275.87Z"/><path class="cls-3" d="M194.7,275.87s8.05-6.33,22.88-19c16.07-13.75,18.49-33.58,2.06-41.38-15.17-7.2-24.93,9-24.93,9s-9.77-16.19-24.93-9c-16.43,7.8-14,27.63,2.06,41.38C186.65,269.54,194.7,275.87,194.7,275.87Z"/><path class="cls-4" d="M298.49,314.1a42.49,42.49,0,1,1-85,0Z"/><path class="cls-3" d="M283.49,346.5a42.5,42.5,0,0,1-55,0,42.47,42.47,0,0,1,55,0Z"/></g></g></svg>