<svg xmlns="http://www.w3.org/2000/svg" viewBox="0 0 509.57 520.02"><defs><style>.cls-1{fill:none;}.cls-2{fill:#ff9d00;}.cls-3{fill:#fff;}</style></defs><title>Состояние зубов и костей</title><g id="Шар_2" data-name="Шар 2"><g id="Шар_1-2" data-name="Шар 1"><path class="cls-1" d="M184.61,520c-.19-5.84-.34-12.76-.4-20.36-2.67-.77-5.31-1.59-7.94-2.44,0,8.34,0,15.29-.07,19.92C178.9,518.12,181.69,519.08,184.61,520Z"/><path class="cls-2" d="M196.92,384.14l4.24-11.32,4.2,11.33C219,421.15,227,462,229.62,508.34q12.42,1.22,25.16,1.24c5.76,0,11.48-.21,17.14-.59,3.23-41.73,12-116.71,34.34-138.88C323.94,352.28,327,340.61,326.44,334a14.67,14.67,0,0,0-4.84-9.83c-7.5,1.68-30.34,4.68-46.69-15.56l-7.14-6.72q-.27.22-.56.42c-5.24,3.55-12.86-.54-18.91-4.5-6.24-4.07-7-2.92-10.65,2.57-3,4.55-7.17,10.77-16.09,10.77-12.34,0-26.3-4.85-32-7.07-3.61,3.53-11.08,13-6.67,27.86l1.34,4.53-4.59,1.12c-6.76,1.65-18,5.71-17.66,14.43,1,16.55,1.6,24,6.79,27.51,2.62,1.8,5.52,3.8,6.89,57.58.53,20.78.65,43.31.64,60.14,2.63.85,5.28,1.67,7.94,2.44C183.92,464.35,185.78,413.89,196.92,384.14Z"/><path class="cls-2" d="M509.57,254.79c0-125.19-90.3-229.29-209.31-250.74,5.77,89.13,33.35,196.47,44,211.14,7.85,10.4,12.43,27,11.91,43.35-.63,19.64-8.51,36.53-22.19,47.56-6.26,5.1-11.87,8.21-17,9.83a31,31,0,0,0,4.27-1l2.17-.71,1.87,1.33a23.93,23.93,0,0,1,10.12,17.65c1,12.41-6.62,27-22.77,43.25-17.35,17.23-27.44,77-31.67,131.78C409.38,495.13,509.57,386.66,509.57,254.79Z"/><path class="cls-2" d="M152.95,352.46c-.44-10.25,6.7-18.09,20.21-22.42-3.24-17.73,6.7-30.38,12.88-34.83l2.07-1.49,2.34,1c.06,0,2.09.89,5.3,2-6.43-5-11.63-13.59-15.78-26.07-7.43-22.32-5.35-27.07,4.66-43.59a338.11,338.11,0,0,0,25-49.18c19.83-47.08,18.61-131.43,16.24-176.27C98.77,16,0,123.85,0,254.79c0,110,69.67,203.66,167.27,239.36,0-57.57-1.68-100.78-4.29-107.67C154.56,380.33,153.95,369.73,152.95,352.46Z"/><path class="cls-2" d="M250.74,288.77q1.2.64,2.48,1.47c4.46,2.92,7,3.9,8.28,4.23l-1.28-6.26A16.22,16.22,0,0,0,250.74,288.77Z"/><path class="cls-2" d="M221.56,302.12c2.81,0,4.54-1.26,6.35-3.57a56.37,56.37,0,0,1-12.06,3.2A48.39,48.39,0,0,0,221.56,302.12Z"/><path class="cls-2" d="M234.83.77c2.41,45.45,3.66,131.8-16.91,180.63a346.42,346.42,0,0,1-25.61,50.35c-9.05,14.94-10.22,16.86-3.82,36.08,4.38,13.15,9.65,20.95,16.12,23.86,6.79,3.05,15,.75,25.3-3.65,2.53-1.1,4.83-2.17,7-3.21,7.24-3.38,13.21-6.16,19.63-6.16,5.95,0,12.27,2.39,20.35,8.91,3.09,2.44,6,5.1,8.81,7.67,13.42,12.26,22.28,20.36,42.53,3.86,27.36-22,20.1-63.46,8.71-78.57C324.54,203.35,296.67,92.4,291.16,2.6A256.85,256.85,0,0,0,254.79,0Q244.71,0,234.83.77Z"/><path class="cls-2" d="M193.22,502.07a253.62,253.62,0,0,0,27.32,5.21c-2.31-39.47-8.62-74.79-19.13-107.06C194,429.94,192.88,472.06,193.22,502.07Z"/><path class="cls-3" d="M209.62,177.91a338.11,338.11,0,0,1-25,49.18c-10,16.52-12.09,21.27-4.66,43.59,4.15,12.47,9.35,21.06,15.78,26.07a98.73,98.73,0,0,0,20.1,5,56.37,56.37,0,0,0,12.06-3.2c.71-.91,1.44-2,2.25-3.19,3.28-4.93,8.63-13,20.58-6.59a16.22,16.22,0,0,1,9.49-.56l-1.47-7.2,23,21.7c11.86,14.87,27.73,14.46,35.24,13.21,5.09-1.62,10.71-4.73,17-9.83,13.68-11,21.56-27.91,22.19-47.56.52-16.31-4.06-32.95-11.91-43.35-10.62-14.67-38.2-122-44-211.14-3-.54-6.05-1-9.1-1.46C296.67,92.4,324.54,203.35,337,220.54c11.39,15.11,18.66,56.52-8.71,78.57-20.24,16.51-29.11,8.41-42.53-3.86-2.81-2.57-5.71-5.22-8.81-7.67-8.08-6.52-14.41-8.91-20.35-8.91-6.41,0-12.38,2.78-19.63,6.16-2.22,1-4.52,2.11-7,3.21-10.28,4.4-18.51,6.7-25.3,3.65-6.47-2.91-11.74-10.71-16.12-23.86-6.4-19.22-5.24-21.14,3.82-36.08a346.42,346.42,0,0,0,25.61-50.35C238.49,132.58,237.24,46.23,234.83.77c-3,.23-6,.53-9,.87C228.23,46.48,229.46,130.83,209.62,177.91Z"/><path class="cls-3" d="M335.41,333.22a23.93,23.93,0,0,0-10.12-17.65l-1.87-1.33-2.17.71a31,31,0,0,1-4.27,1,28.52,28.52,0,0,1-8.68,1.41c-11.72,0-20.51-8-28.62-15.44-2.69-2.46-5.48-5-8.35-7.28-4.41-3.56-7.88-5.56-11.1-6.41l1.28,6.26c-1.29-.33-3.82-1.31-8.28-4.23q-1.29-.84-2.48-1.47a91.47,91.47,0,0,0-10,4.23c-2.17,1-4.63,2.16-7.28,3.31-1.84.79-3.71,1.54-5.58,2.24-1.81,2.31-3.54,3.57-6.35,3.57a48.39,48.39,0,0,1-5.71-.37,27,27,0,0,1-14.92-1.85,25.4,25.4,0,0,1-5.18-3.16c-3.2-1.13-5.24-2-5.3-2l-2.34-1L186,295.2c-6.18,4.45-16.11,17.1-12.88,34.83-13.51,4.33-20.65,12.17-20.21,22.42,1,17.27,1.61,27.87,10,34,2.61,6.89,4.27,50.1,4.29,107.67,3,1.09,6,2.1,9,3.08,0-16.83-.12-39.35-.64-60.14-1.36-53.78-4.27-55.78-6.89-57.58-5.19-3.46-5.83-11-6.79-27.51-.37-8.72,10.91-12.79,17.66-14.43l4.59-1.12-1.34-4.53c-4.41-14.85,3.06-24.33,6.67-27.86,5.73,2.21,19.69,7.07,32,7.07,8.93,0,13.07-6.23,16.09-10.77,3.65-5.49,4.41-6.63,10.65-2.57,6.05,4,13.67,8.05,18.91,4.5q.29-.2.56-.42l7.14,6.72c16.35,20.24,39.19,17.24,46.69,15.56a14.67,14.67,0,0,1,4.84,9.83c.56,6.64-2.5,18.31-20.17,36.13C284,392.27,275.16,467.25,271.93,509c3-.2,6-.44,9-.74,4.23-54.75,14.32-114.55,31.67-131.78C328.79,360.18,336.45,345.63,335.41,333.22Z"/><path class="cls-3" d="M205.35,384.16l-4.2-11.33-4.24,11.32c-11.14,29.74-13,80.21-12.72,115.52q4.47,1.29,9,2.41c-.34-30,.8-72.13,8.19-101.85,10.51,32.27,16.82,67.59,19.13,107.06q4.52.61,9.08,1.06C227,462,219,421.15,205.35,384.16Z"/><path class="cls-3" d="M200.92,299.9a27,27,0,0,0,14.92,1.85,98.73,98.73,0,0,1-20.1-5A25.4,25.4,0,0,0,200.92,299.9Z"/><path class="cls-3" d="M281.74,302.72l-23-21.7,1.47,7.2c3.22.84,6.69,2.85,11.1,6.41,2.87,2.27,5.66,4.82,8.35,7.28,8.12,7.42,16.9,15.44,28.63,15.44a28.52,28.52,0,0,0,8.68-1.41C309.47,317.17,293.6,317.59,281.74,302.72Z"/><path class="cls-3" d="M230.16,295.36c-.81,1.22-1.54,2.28-2.25,3.19,1.87-.69,3.73-1.45,5.58-2.24,2.66-1.16,5.12-2.3,7.28-3.31a91.47,91.47,0,0,1,10-4.23C238.78,282.39,233.44,290.43,230.16,295.36Z"/></g></g></svg>