<svg xmlns="http://www.w3.org/2000/svg" viewBox="0 0 510.96 512"><defs><style>.cls-1{fill:#ff9d00;}.cls-2{fill:#fff;}.cls-3{fill:#ff8203;}</style></defs><title>Состояние кожи,  волос и ногтей</title><g id="Шар_2" data-name="Шар 2"><g id="Шар_1-2" data-name="Шар 1"><path class="cls-1" d="M511,256.52a254.27,254.27,0,0,0-35.29-129.61q-2.46,2.31-5.08,4.56c-26.85,23-46.39,39.1-57.81,48.39V449.21l5.95,3.83q2.13-1.78,4.23-3.59A254.89,254.89,0,0,0,511,256.52Z"/><path class="cls-2" d="M403.78,443.46c1,.64,2.05,1.28,3.07,1.94l5.93,3.82V179.86q-6,4.91-9,7.26Z"/><path class="cls-2" d="M412.78,457.82q3-2.35,5.95-4.79l-5.95-3.83Z"/><path class="cls-2" d="M370.68,435.51q12.62,6,24.81,13.41l8.29,1.25v-6.72a293.59,293.59,0,0,0-33.3-18C370.56,429.17,370.62,432.54,370.68,435.51Z"/><path class="cls-2" d="M403.78,443.46v6.72l-8.29-1.25c2.18,1.32,4.34,2.66,6.49,4l9.32,6,1.47-1.14v-8.62l-5.93-3.82C405.83,444.74,404.81,444.1,403.78,443.46Z"/><path class="cls-2" d="M361.6,431.37q4.57,2,9.08,4.14c-.06-3-.12-6.34-.2-10q-4.52-2.07-9.08-4C361.47,425,361.54,428.36,361.6,431.37Z"/><path class="cls-3" d="M475.67,126.91C519.9,85.38,525,28.48,476.84,5.61,430.72-16.28,401,33,401,33S371.3-16.28,325.18,5.61q-3.32,1.58-6.3,3.37A256,256,0,0,1,475.67,126.91Z"/><path class="cls-3" d="M364.79,150.93l-11.23-.66q6,5,11.23,9.42Z"/><path class="cls-1" d="M255.47,394.17a99.28,99.28,0,0,0,29.21-4.39l33.48-32.37v14.85c19.46-15.12,34.29-37.08,41.59-62.7.06-5.22,5.51-12.09,6.27-19.22,2.48-23.21,1.07-54.33-15.67-74.21-.45-.54-.93-1.05-1.41-1.57a6.45,6.45,0,0,1-6.42,5.89H292.2a6.45,6.45,0,0,1,0-12.9h48.43c-9.65-6.41-22.54-10.18-38.55-11.22a178.3,178.3,0,0,1-95.24-34.79c-2.76,20.28-11.45,35.85-25.39,46h45.35a6.43,6.43,0,0,1,2.2.39h10.14a19.41,19.41,0,0,1,19.41,19.41v54.26a14.9,14.9,0,0,1-14.9,14.9h-6.41V246.26a25.42,25.42,0,0,0-25.42-25.42H176.47a6.45,6.45,0,0,1-6.45-6.57s0-.07,0-.11v0a82.48,82.48,0,0,1-23.87,6.42v52.69C146.16,339.93,195.19,394.17,255.47,394.17Zm90.9-113.57c0,5.37-7.63,9.73-17,9.73s-17-4.36-17-9.73,7.63-9.73,17-9.73S346.37,275.23,346.37,280.61Zm-48.43-53.38h30.52a11.43,11.43,0,0,1,10.28,16.46h0A9.93,9.93,0,0,1,330,258.28H296.42a9.93,9.93,0,0,1-8.76-14.59h0a11.42,11.42,0,0,1,10.28-16.46Zm-36.63,139H249.63a5.4,5.4,0,0,1,0-10.79h11.69a5.4,5.4,0,0,1,0,10.79Zm-30.47-31.12a6.54,6.54,0,0,1,8-1.69,39.38,39.38,0,0,0,33.34,0,6.53,6.53,0,0,1,8,1.69c1.82,2.37.72,6.18-3,8a50.7,50.7,0,0,1-43.29,0C230.12,341.25,229,337.44,230.85,335.07ZM182.48,227.23H213a11.43,11.43,0,0,1,10.28,16.46h0a9.93,9.93,0,0,1-8.76,14.59H181a9.93,9.93,0,0,1-8.76-14.59h0a11.42,11.42,0,0,1,10.28-16.46Zm-17.9,53.38c0-5.37,7.63-9.73,17-9.73s17,4.36,17,9.73-7.63,9.73-17,9.73S164.58,286,164.58,280.61Z"/><path class="cls-1" d="M137.16,437Q125.9,442.55,115,449.19l22.15-6.11Z"/><path class="cls-1" d="M98.2,165.28a157.33,157.33,0,0,1,109-149.74l.68-.22a157.7,157.7,0,0,1,100.13,1.73A63.21,63.21,0,0,1,318.88,9,256,256,0,0,0,255.48,1C114.38,1,0,115.42,0,256.52A254.9,254.9,0,0,0,88,449.43q2.1,1.82,4.23,3.59l6-3.85Z"/><path class="cls-2" d="M340.63,207.55H292.2a6.45,6.45,0,0,0,0,12.9h50.32a6.45,6.45,0,0,0,6.42-5.89A46,46,0,0,0,340.63,207.55Z"/><path class="cls-3" d="M233.24,214a6.45,6.45,0,0,1-6.45,6.45H176.47a6.45,6.45,0,0,1-6.44-6.28s0,.07,0,.11a6.45,6.45,0,0,0,6.45,6.57h35.35a25.42,25.42,0,0,1,25.42,25.42v50.25h6.41a14.9,14.9,0,0,0,14.9-14.9V227.35a19.41,19.41,0,0,0-19.41-19.41H229A6.45,6.45,0,0,1,233.24,214Z"/><path class="cls-2" d="M233.83,343a50.7,50.7,0,0,0,43.29,0c3.71-1.77,4.8-5.58,3-8a6.53,6.53,0,0,0-8-1.69,39.38,39.38,0,0,1-33.34,0,6.54,6.54,0,0,0-8,1.69C229,337.44,230.12,341.25,233.83,343Z"/><path class="cls-3" d="M261.32,355.4H249.63a5.4,5.4,0,0,0,0,10.79h11.69a5.4,5.4,0,0,0,0-10.79Z"/><path class="cls-2" d="M107.2,443.42V165.28a147.81,147.81,0,0,1,102.14-141l.67-.22a148.79,148.79,0,0,1,91.52.22,55,55,0,0,1,6.53-7.27,157.7,157.7,0,0,0-100.13-1.73l-.68.22a157.33,157.33,0,0,0-109,149.74V449.17l5.89-3.79C105.13,444.72,106.16,444.07,107.2,443.42Z"/><path class="cls-1" d="M402,453c-2.15-1.38-4.32-2.72-6.49-4q-12.17-7.38-24.81-13.41-4.52-2.16-9.08-4.14a267.59,267.59,0,0,0-44.1-14.8A60.83,60.83,0,0,1,201,430.67a59.76,59.76,0,0,1-4-14.94,267.42,267.42,0,0,0-50.88,17q-4.53,2-9,4.24v6.07L115,449.19c-2,1.23-4,2.48-6,3.77l-9.33,6q1.83,1.41,3.69,2.79c.63.47,1.25.94,1.88,1.4,2.78,2,5.61,4,8.48,5.91a255.08,255.08,0,0,0,296.07-8.88l1.57-1.21Z"/><path class="cls-1" d="M400.86,189.33l-27.07-22.15q-4.19-3.47-9-7.48-5.25-4.38-11.23-9.42-5.43-4.57-11.45-9.69-5.14-4.36-10.68-9.11C292.58,98.22,280,53.28,301.53,24.34A148.79,148.79,0,0,0,210,24.12l-.67.22a147.81,147.81,0,0,0-102.14,141V443.42a293.91,293.91,0,0,1,30-16.41q4.48-2.12,9-4.08a275.5,275.5,0,0,1,50.34-16.3V385.85c-22.47-14.25-40.3-36.37-50.34-62.91a140.27,140.27,0,0,1-9-49.68v-60.9l4.13-.34c1.66-.14,3.28-.33,4.87-.54,31.84-4.29,49.91-23.84,52.35-56.8.06-.76.1-1.3.15-1.74v-.12l.2-1,1.81-6.71,5.38,4.39a169.45,169.45,0,0,0,96.61,37.82c24.73,1.61,43.09,9.35,54.58,23A55.9,55.9,0,0,1,364.79,222c4.89,10.11,6.88,21.44,7.38,32.76v13c-.33,8.52-1.2,16.77-2,24.19-.35,3.33-.68,6.43-.94,9.31q-1,4.84-2.39,9.54c0,.58,0,1.2,0,1.83-1.9,7.31-4.09,15.73-6.92,21.55a126.87,126.87,0,0,1-41.78,49.2v24.09a275.64,275.64,0,0,1,43.25,14c2.43,1,4.85,2.08,7.27,3.16l0,.81a315.17,315.17,0,0,1,35.09,18V187.12Z"/><path class="cls-2" d="M146.16,273.25V211.47c-1.59.21-3.21.4-4.87.54l-4.13.34v60.9a140.27,140.27,0,0,0,9,49.68Z"/><path class="cls-2" d="M342.52,207.55h-1.89a46,46,0,0,1,8.31,7c0-.19,0-.37,0-.57A6.45,6.45,0,0,0,342.52,207.55Z"/><path class="cls-2" d="M196.5,406.63a275.5,275.5,0,0,0-50.34,16.3v9.83a267.42,267.42,0,0,1,50.88-17,61.41,61.41,0,0,1-.54-8.09Z"/><path class="cls-2" d="M98.2,449.17l-6,3.85c2,1.64,4,3.24,6,4.82Z"/><path class="cls-2" d="M318.16,407.48v.16a61,61,0,0,1-.66,8.93,267.59,267.59,0,0,1,44.1,14.8c-.06-3-.12-6.32-.19-9.87A275.64,275.64,0,0,0,318.16,407.48Z"/><path class="cls-1" d="M289.42,397.71l-3.58-.71-6.33-1.56-47.67.73-10.33-2.67-16-2v16.16a52.44,52.44,0,0,0,.39,6.26,50.86,50.86,0,0,0,3.47,13.36,51.82,51.82,0,0,0,99.33-12.64,52,52,0,0,0,.48-7V389A111.7,111.7,0,0,1,289.42,397.71Z"/><path class="cls-2" d="M137.16,427a293.91,293.91,0,0,0-30,16.41v7.92l7.8-2.15q10.89-6.63,22.15-12.18Z"/><path class="cls-2" d="M146.16,432.76v-9.83q-4.52,2-9,4.08v10Q141.63,434.8,146.16,432.76Z"/><path class="cls-2" d="M109,453c2-1.29,4-2.54,6-3.77l-7.8,2.15v-7.92c-1,.65-2.07,1.3-3.11,2l-5.89,3.79v8.67L99.63,459Z"/><path class="cls-2" d="M337,241.34a9.89,9.89,0,0,0-7-2.91h-3.64a15.2,15.2,0,0,1-4,19.84H304.07a15.2,15.2,0,0,1-4-19.84h-3.64a9.91,9.91,0,0,0-8.75,5.25h0a9.92,9.92,0,0,0,8.76,14.59H330a9.93,9.93,0,0,0,8.75-14.59h0A9.94,9.94,0,0,0,337,241.34Z"/><path class="cls-3" d="M304.07,258.28h18.26a15.2,15.2,0,0,0,4-19.84H300.06a15.2,15.2,0,0,0,4,19.84Z"/><path class="cls-3" d="M293.57,235.59l38.67-.51c2.74,0,4.88,5.81,5.46,3.34.69-2.93.59,4.4,1.05,5.28a11.43,11.43,0,0,0-10.28-16.46H297.94a11.42,11.42,0,0,0-10.28,16.46C289.33,240.56,289.78,235.59,293.57,235.59Z"/><path class="cls-3" d="M337.69,238.41c-.58,2.47-2.72-3.34-5.46-3.34l-38.67.51c-3.79,0-4.23,5-5.9,8.1h0a9.91,9.91,0,0,1,8.75-5.25h3.64L314,236l12.33,2.48H330a9.91,9.91,0,0,1,8.75,5.25h0C338.28,242.81,338.38,235.48,337.69,238.41Z"/><polygon class="cls-3" points="326.35 238.44 314.02 235.96 300.06 238.44 300.06 238.44 326.35 238.44 326.35 238.44"/><path class="cls-2" d="M221.54,241.34a9.89,9.89,0,0,0-7-2.91h-3.64a15.21,15.21,0,0,1-4,19.85h7.66a9.93,9.93,0,0,0,8.76-14.59h0A10,10,0,0,0,221.54,241.34Z"/><path class="cls-2" d="M182.51,246.11a15.09,15.09,0,0,1,2.08-7.67H181a9.92,9.92,0,0,0-8.75,5.25h0A9.92,9.92,0,0,0,181,258.28h7.65A15.18,15.18,0,0,1,182.51,246.11Z"/><path class="cls-3" d="M213,246.11a15.09,15.09,0,0,0-2.08-7.67H184.59a15.2,15.2,0,0,0,4,19.85h18.26A15.18,15.18,0,0,0,213,246.11Z"/><path class="cls-3" d="M178.1,235.59l38.67-.51c2.74,0,4.88,5.81,5.46,3.34.69-2.93.59,4.4,1.05,5.28A11.43,11.43,0,0,0,213,227.23H182.48a11.42,11.42,0,0,0-10.28,16.46C173.87,240.56,174.31,235.59,178.1,235.59Z"/><path class="cls-3" d="M222.22,238.41c-.58,2.47-2.72-3.34-5.46-3.34l-38.67.51c-3.79,0-4.23,5-5.9,8.1h0a9.92,9.92,0,0,1,8.75-5.25h3.64l14-2.48,12.33,2.48h3.64a9.91,9.91,0,0,1,8.75,5.25h0C222.81,242.81,222.91,235.48,222.22,238.41Z"/><polygon class="cls-3" points="198.55 235.96 184.59 238.44 210.88 238.44 198.55 235.96"/><path class="cls-2" d="M257.33,459.47a51.81,51.81,0,0,1-48-32.22,50.86,50.86,0,0,1-3.47-13.36q-4.43.84-8.84,1.83a59.76,59.76,0,0,0,4,14.94,60.83,60.83,0,0,0,116.47-14.09q-4.4-1.06-8.82-2A51.9,51.9,0,0,1,257.33,459.47Z"/><path class="cls-1" d="M318.16,357.41l-33.48,32.37a104.67,104.67,0,0,0,33.48-17.52Z"/><path class="cls-2" d="M309.16,389v16.52q4.51.89,9,1.95V383.39Q313.78,386.41,309.16,389Z"/><path class="cls-2" d="M205.5,407.64v-2.82q-4.51.83-9,1.81v1a61.41,61.41,0,0,0,.54,8.09q4.41-1,8.84-1.83A52.44,52.44,0,0,1,205.5,407.64Z"/><path class="cls-2" d="M318.16,407.48q-4.49-1.05-9-1.95v2.1a52,52,0,0,1-.48,7q4.42.9,8.82,2a61,61,0,0,0,.66-8.93Z"/><path class="cls-2" d="M364.79,222a55.9,55.9,0,0,0-7.55-11.71c-11.49-13.64-29.85-21.38-54.58-23A169.45,169.45,0,0,1,206,149.52l-5.38-4.39-1.81,6.71-.2,1v.12c-.05.45-.09,1-.15,1.74-2.44,33-20.52,52.51-52.35,56.8v9.09A82.48,82.48,0,0,0,170,214.14s0-.1,0-.14a6.45,6.45,0,0,1,6.45-6.45h5c13.94-10.17,22.63-25.73,25.39-46a178.3,178.3,0,0,0,95.24,34.79c16,1,28.9,4.82,38.55,11.22h1.89A6.45,6.45,0,0,1,349,214c0,.19,0,.38,0,.57.48.52.91,1.07,1.41,1.57,23.44,23.25,9.4,93.67,9.4,93.43-7.31,25.62-22.13,47.57-41.59,62.7a104.67,104.67,0,0,1-33.48,17.52,99.28,99.28,0,0,1-29.21,4.39c-60.28,0-109.31-54.25-109.31-120.92v49.68c10,26.54,27.87,48.67,50.34,62.91v20.78q4.49-1,9-1.81V391.48s20.85,8.85,35.52,10.35c19.12,2,37.83-.67,48.41-4.12a155.79,155.79,0,0,0,19.73-8.7q4.62-2.6,9-5.62a126.87,126.87,0,0,0,41.78-49.2c2.53-5.2,8.81-19.66,12.37-45.2C375.2,268.22,375.31,243.78,364.79,222Zm-5,88.25h0c0,.87,0,1.81,0,2.79C359.74,312.1,359.74,311.17,359.74,310.3Z"/><ellipse class="cls-3" cx="329.34" cy="280.61" rx="17.03" ry="9.73"/><ellipse class="cls-3" cx="181.61" cy="280.61" rx="17.03" ry="9.73"/><path class="cls-2" d="M170,214.14v0Z"/><path class="cls-2" d="M229,207.94a6.43,6.43,0,0,0-2.2-.39H181.44l-.56.39Z"/><path class="cls-2" d="M170,214.14v0a6.45,6.45,0,0,0,6.44,6.28h50.32a6.45,6.45,0,0,0,2.2-12.51H180.88A63.69,63.69,0,0,1,170,214.14Z"/><path class="cls-2" d="M170,214s0,.1,0,.14h0a6.59,6.59,0,0,1,6.65-6.2h4.2l.56-.39h-5A6.45,6.45,0,0,0,170,214Z"/><path class="cls-2" d="M176.68,207.94a6.59,6.59,0,0,0-6.65,6.2,63.69,63.69,0,0,0,10.85-6.2Z"/><path class="cls-3" d="M412.78,165.28v14.58c11.42-9.29,31-25.41,57.81-48.39q2.62-2.25,5.08-4.56A256,256,0,0,0,318.88,9a63.21,63.21,0,0,0-10.81,8.09C369,38.74,412.78,97,412.78,165.28Z"/><path class="cls-3" d="M331.43,131.48q5.56,4.76,10.68,9.11l31.68,1.86v24.74C391.62,181.95,401,189.33,401,189.33l2.77-2.2V165.28c0-65.7-43-121.54-102.25-140.95C280,53.28,292.58,98.22,331.43,131.48Z"/><path class="cls-3" d="M364.79,150.93v8.76q4.81,4,9,7.48V142.44l-31.68-1.86q6,5.11,11.45,9.69Z"/><path class="cls-3" d="M308.06,17.06a55,55,0,0,0-6.53,7.27c59.29,19.41,102.25,75.25,102.25,140.95v21.84q3-2.36,9-7.26V165.28C412.78,97,369,38.74,308.06,17.06Z"/></g></g></svg>