<?xml version="1.0" encoding="utf-8"?>
<!-- Generator: Adobe Illustrator 21.0.0, SVG Export Plug-In . SVG Version: 6.00 Build 0)  -->
<svg version="1.1" id="Шар_1" xmlns="http://www.w3.org/2000/svg" xmlns:xlink="http://www.w3.org/1999/xlink" x="0px" y="0px"
	 viewBox="0 0 512 512" style="enable-background:new 0 0 512 512;" xml:space="preserve">
<style type="text/css">
	.st0{fill:#FF9D00;}
	.st1{fill:#FFFFFF;}
	.st2{fill:#FF8203;}
</style>
<title>Здоровье и иммунитет</title>
<circle class="st0" cx="256" cy="256" r="256"/>
<path class="st1" d="M297.9,90.2c-13.5,2.4-22.5,15.2-20.2,28.7l0.8,4.4l-132.8,81.8c-2.2,1.3-3.3,3.8-2.9,6.3l14.8,85.5
	c0.4,2.5,2.3,4.5,4.8,5l152.7,32.4l0.8,4.4c2.3,13.5,15.2,22.6,28.7,20.2s22.6-15.2,20.2-28.7l-38.1-220
	C324.3,96.9,311.4,87.8,297.9,90.2C297.9,90.2,297.9,90.2,297.9,90.2z M352.3,332.5c1.5,6.7-2.8,13.3-9.5,14.8
	c-6.7,1.5-13.3-2.8-14.8-9.5c-0.1-0.3-0.1-0.7-0.2-1l-1.5-8.5c-0.4-2.5-2.3-4.5-4.8-5l-152.5-32.4l-13.4-77.3l132.9-81.8
	c2.2-1.3,3.3-3.8,2.9-6.3l-1.3-8.6c-1.5-6.7,2.8-13.3,9.5-14.8c6.7-1.5,13.3,2.8,14.8,9.5c0.1,0.3,0.1,0.7,0.2,1L352.3,332.5z"/>
<path class="st1" d="M147.8,204.3l-42.8,7.4C78.1,216.4,60,242,64.6,269c4.7,27,30.3,45.1,57.3,40.4l42.8-7.4
	c3.4-0.6,5.6-3.8,5.1-7.2L155,209.3C154.4,206,151.2,203.7,147.8,204.3z M156.5,290.9l-36.7,6.3c-20.2,4-39.7-9.1-43.7-29.3
	c-4-20.2,9.1-39.7,29.3-43.7c0.6-0.1,1.2-0.2,1.8-0.3l36.7-6.3L156.5,290.9z"/>
<path class="st1" d="M374,190.6l-38.7-5.9c-3.4-0.5-6.6,1.8-7.1,5.2c-0.1,0.7-0.1,1.4,0,2.1l10.6,61.1c0.6,3.4,3.7,5.6,7.1,5.1
	c0,0,0,0,0.1,0c0.7-0.1,1.3-0.3,1.9-0.7l34.5-18.5c2.4-1.3,3.6-3.9,3.2-6.5l-6.3-36.6C378.8,193.2,376.7,191.1,374,190.6z
	 M372.5,230.1l-23,12.4l-7.7-44.1l25.9,3.8L372.5,230.1z"/>
<path class="st1" d="M206.9,367.1l-7.2-5.1l-30.3-68.6c-1.2-2.6-3.9-4.1-6.7-3.6l-48.7,8.4c-3.4,0.6-5.6,3.8-5,7.2
	c0.1,0.5,0.2,0.9,0.4,1.4l42.4,99.6c1.1,2.7,3.9,4.3,6.7,3.8c0.4-0.1,0.8-0.2,1.1-0.3l44.3-16.8l0,0c2.6-1.1,4.8-2.8,6.4-5.1
	c4.8-6.7,3.2-16-3.4-20.7c0,0,0,0,0,0L206.9,367.1z M200.3,380.6c-0.3,0.4-0.6,0.7-1,0.8l-38.7,14.6l-37-86.9l36.4-6.3l29,65.7
	c0.5,1,1.2,1.9,2.1,2.6l8.6,6.1c0.5,0.4,0.9,1,1,1.6C200.8,379.5,200.7,380.1,200.3,380.6L200.3,380.6z"/>
<rect x="394.3" y="202.6" transform="matrix(0.9854 -0.1704 0.1704 0.9854 -29.5379 73.4018)" class="st2" width="37.2" height="12.4"/>
<rect x="380.7" y="139" transform="matrix(0.7572 -0.6532 0.6532 0.7572 1.9553 295.6849)" class="st2" width="36.1" height="12.4"/>
<rect x="414.8" y="255.3" transform="matrix(0.3608 -0.9326 0.9326 0.3608 14.1122 567.3699)" class="st2" width="12.4" height="36.2"/>
<rect x="296.7" y="122.4" transform="matrix(0.9854 -0.1704 0.1704 0.9854 -34.3878 54.9496)" class="st1" width="12.4" height="210.8"/>
<rect x="123.5" y="232.8" transform="matrix(0.9854 -0.1704 0.1704 0.9854 -39.8719 25.6869)" class="st2" width="12.4" height="24.8"/>
<rect x="99.1" y="237" transform="matrix(0.9854 -0.1704 0.1704 0.9854 -40.9482 21.5836)" class="st2" width="12.4" height="24.8"/>
</svg>
