<svg xmlns="http://www.w3.org/2000/svg" viewBox="0 0 381.33 427.68"><defs><style>.cls-1{fill:#009444;}.cls-2{fill:#72bf44;}.cls-3{fill:#8dc63f;}.cls-4{fill:#f58220;}.cls-5{fill:#faa61a;}.cls-6{fill:#f15a22;}.cls-7{fill:#39b54a;}.cls-8{fill:#fff;}</style></defs><title>Ресурс 1</title><g id="Шар_2" data-name="Шар 2"><g id="_лой_1" data-name="—лой_1"><polygon class="cls-1" points="104.59 98.97 117.97 74.55 89.58 35.35 91.84 92.06 104.59 98.97"/><polygon class="cls-2" points="145.06 33.58 117.97 74.55 89.58 35.35 145.06 33.58"/><polygon class="cls-3" points="157.63 0 145.06 33.58 89.58 35.35 157.63 0"/><polygon class="cls-1" points="70.31 94.47 53.77 96.68 37 62.76 72.38 71.58 70.31 94.47"/><polygon class="cls-2" points="82.93 25.09 72.38 71.58 37 62.76 82.93 25.09"/><polygon class="cls-3" points="5.63 22.54 82.93 25.09 37 62.76 5.63 22.54"/><polygon class="cls-4" points="71.12 427.52 35.55 343.09 37.52 336.37 81.56 322.18 71.12 427.52"/><polygon class="cls-5" points="139.9 128.46 89.54 98.97 70.12 181.4 139.9 128.46"/><polygon class="cls-4" points="31.16 106.95 89.54 98.97 70.12 181.4 31.16 106.95"/><polygon class="cls-6" points="0 149.97 31.16 106.95 70.12 181.4 0 149.97"/><polygon class="cls-6" points="70.12 425.15 119.68 322.18 118.96 316.75 81.56 322.18 70.12 425.15"/><polygon class="cls-5" points="37.52 336.37 17.54 269.01 89.54 238.63 37.52 336.37"/><polygon class="cls-4" points="0 149.97 14.31 209.81 70.12 181.4 0 149.97"/><polygon class="cls-4" points="22.33 266.99 15.77 260.73 14.31 209.81 89.54 238.63 22.33 266.99"/><polygon class="cls-4" points="70.12 181.4 125 221.68 129.47 215.76 139.9 128.46 70.12 181.4"/><polygon class="cls-4" points="89.54 238.63 125 221.68 125 259.62 121.24 265.79 89.54 238.63"/><polygon class="cls-4" points="121.24 265.79 121.24 308.81 118.96 316.75 81.56 322.18 121.24 265.79"/><polygon class="cls-5" points="89.54 238.63 81.56 322.18 121.24 265.79 89.54 238.63"/><polygon class="cls-6" points="37.52 336.37 89.54 238.63 81.56 322.18 37.52 336.37"/><polygon class="cls-6" points="14.31 209.81 70.12 181.4 89.54 238.63 14.31 209.81"/><polyline class="cls-5" points="70.12 181.4 89.54 238.63 125 221.68"/><path class="cls-6" d="M161.61,426.83a.64.64,0,0,1-.1.37.82.82,0,0,1-.37.26,2.75,2.75,0,0,1-.69.16,10.69,10.69,0,0,1-2.16,0,2.56,2.56,0,0,1-.69-.16.94.94,0,0,1-.37-.26.58.58,0,0,1-.12-.37V396.12H141.79v30.72a.58.58,0,0,1-.12.37.94.94,0,0,1-.37.26,2.54,2.54,0,0,1-.68.16,10.82,10.82,0,0,1-2.17,0,2.75,2.75,0,0,1-.69-.16.81.81,0,0,1-.37-.26.63.63,0,0,1-.1-.37V394a2,2,0,0,1,.46-1.44,1.54,1.54,0,0,1,1.17-.48H160a1.45,1.45,0,0,1,1.15.48,2.14,2.14,0,0,1,.42,1.44Z"/><path class="cls-6" d="M201.38,426.83a.63.63,0,0,1-.11.37.81.81,0,0,1-.37.26,2.75,2.75,0,0,1-.69.16,10.69,10.69,0,0,1-2.16,0,2.56,2.56,0,0,1-.69-.16.82.82,0,0,1-.35-.26.63.63,0,0,1-.1-.37V403.55q0-.85,0-1.77t.08-1.66H197l-.46.82-.54.92-.58,1-.58.95-14.66,23.09a3.49,3.49,0,0,1-.31.38,1.08,1.08,0,0,1-.41.26,2.51,2.51,0,0,1-.59.14,7.46,7.46,0,0,1-.86,0,7,7,0,0,1-1-.05,1.78,1.78,0,0,1-.6-.18.77.77,0,0,1-.31-.29.83.83,0,0,1-.09-.41v-34a.61.61,0,0,1,.12-.36.87.87,0,0,1,.39-.27,3,3,0,0,1,.71-.16,8.46,8.46,0,0,1,1-.05,9,9,0,0,1,1.09.05,2.75,2.75,0,0,1,.69.16.77.77,0,0,1,.37.27.66.66,0,0,1,.1.36v23.42q0,.74,0,1.59t-.09,1.65h.05q.42-.68,1-1.66t1.19-1.93l14.64-23.12a2.26,2.26,0,0,1,.29-.34,1.22,1.22,0,0,1,.41-.25,3,3,0,0,1,.59-.15,5.65,5.65,0,0,1,.86-.05,7.19,7.19,0,0,1,1,.05,1.78,1.78,0,0,1,.6.18.82.82,0,0,1,.31.27.76.76,0,0,1,.09.4Z"/><path class="cls-6" d="M237,394.06a6.89,6.89,0,0,1-.05.9,2,2,0,0,1-.17.62.84.84,0,0,1-.29.34.69.69,0,0,1-.38.11h-9.53v30.77a.7.7,0,0,1-.1.38.71.71,0,0,1-.37.26,3.81,3.81,0,0,1-.69.16,8.57,8.57,0,0,1-2.16,0,3.8,3.8,0,0,1-.71-.16.7.7,0,0,1-.37-.26.69.69,0,0,1-.11-.38V396h-9.53a.69.69,0,0,1-.38-.11.76.76,0,0,1-.28-.34,2.64,2.64,0,0,1-.17-.62,5.42,5.42,0,0,1-.07-.9,5.68,5.68,0,0,1,.07-.92,2.93,2.93,0,0,1,.17-.64.76.76,0,0,1,.28-.36.69.69,0,0,1,.38-.11h23.57a.69.69,0,0,1,.38.11.84.84,0,0,1,.29.36,2.19,2.19,0,0,1,.17.64A7.24,7.24,0,0,1,237,394.06Z"/><path class="cls-6" d="M269.29,425.85a3.53,3.53,0,0,1,.22,1,.69.69,0,0,1-.2.56,1.23,1.23,0,0,1-.69.25,12,12,0,0,1-1.3.05q-.81,0-1.3,0a2.83,2.83,0,0,1-.73-.14.77.77,0,0,1-.37-.26,2.1,2.1,0,0,1-.22-.41l-2.91-8.64H247.71l-2.78,8.53a1.46,1.46,0,0,1-.21.42,1,1,0,0,1-.38.3,2.23,2.23,0,0,1-.71.18,10.31,10.31,0,0,1-1.19.05,9.14,9.14,0,0,1-1.24-.07,1.22,1.22,0,0,1-.68-.26.71.71,0,0,1-.18-.56,3.49,3.49,0,0,1,.22-1l11.36-33a1.46,1.46,0,0,1,.28-.49,1.14,1.14,0,0,1,.5-.3,3.61,3.61,0,0,1,.84-.15q.51,0,1.3,0t1.39,0a3.93,3.93,0,0,1,.89.15,1.16,1.16,0,0,1,.52.32,1.47,1.47,0,0,1,.29.51Zm-14.59-29.1h0l-5.84,17.69h11.78Z"/><path class="cls-6" d="M304.71,426.81a.63.63,0,0,1-.47.64,3.8,3.8,0,0,1-.69.16,6.9,6.9,0,0,1-1.06.07,7,7,0,0,1-1.1-.07,3.79,3.79,0,0,1-.68-.16.63.63,0,0,1-.47-.64V411.06H284.81v15.74a.63.63,0,0,1-.47.64,3.81,3.81,0,0,1-.69.16,8.57,8.57,0,0,1-2.16,0,3.81,3.81,0,0,1-.71-.16.7.7,0,0,1-.37-.26.69.69,0,0,1-.1-.38V392.74a.63.63,0,0,1,.47-.64,3.8,3.8,0,0,1,.71-.17,8.56,8.56,0,0,1,2.16,0,3.8,3.8,0,0,1,.69.17.63.63,0,0,1,.47.64V407h15.42V392.74a.63.63,0,0,1,.47-.64,3.78,3.78,0,0,1,.68-.17,7.16,7.16,0,0,1,1.1-.07,7,7,0,0,1,1.06.07,3.79,3.79,0,0,1,.69.17.63.63,0,0,1,.47.64Z"/><path class="cls-6" d="M344.48,426.83a.63.63,0,0,1-.11.37.81.81,0,0,1-.37.26,2.75,2.75,0,0,1-.69.16,10.69,10.69,0,0,1-2.16,0,2.56,2.56,0,0,1-.69-.16.82.82,0,0,1-.35-.26.63.63,0,0,1-.1-.37V403.55q0-.85,0-1.77t.08-1.66h-.05l-.46.82-.54.92-.58,1-.58.95-14.66,23.09a3.49,3.49,0,0,1-.31.38,1.08,1.08,0,0,1-.41.26,2.51,2.51,0,0,1-.59.14,7.46,7.46,0,0,1-.86,0,7,7,0,0,1-1-.05,1.78,1.78,0,0,1-.6-.18.77.77,0,0,1-.31-.29.83.83,0,0,1-.09-.41v-34a.61.61,0,0,1,.12-.36.87.87,0,0,1,.39-.27,3,3,0,0,1,.71-.16,8.47,8.47,0,0,1,1-.05,9,9,0,0,1,1.09.05,2.75,2.75,0,0,1,.69.16.77.77,0,0,1,.37.27.66.66,0,0,1,.1.36v23.42q0,.74,0,1.59t-.09,1.65h.05q.42-.68,1-1.66t1.19-1.93l14.64-23.12a2.26,2.26,0,0,1,.29-.34,1.21,1.21,0,0,1,.41-.25,3,3,0,0,1,.59-.15,5.65,5.65,0,0,1,.86-.05,7.19,7.19,0,0,1,1,.05,1.78,1.78,0,0,1,.6.18.82.82,0,0,1,.31.27.76.76,0,0,1,.09.4Z"/><path class="cls-6" d="M379.61,426.83a.64.64,0,0,1-.1.37.82.82,0,0,1-.37.26,2.74,2.74,0,0,1-.69.16,10.83,10.83,0,0,1-2.17,0,2.54,2.54,0,0,1-.68-.16.93.93,0,0,1-.37-.26.58.58,0,0,1-.12-.37V412h-3.38a8.71,8.71,0,0,0-3.13.44,5.34,5.34,0,0,0-1.88,1.28,7.69,7.69,0,0,0-1.36,2q-.56,1.18-1.09,2.63l-2.91,8.17a3.15,3.15,0,0,1-.28.55.94.94,0,0,1-.43.34,2.72,2.72,0,0,1-.72.18,9,9,0,0,1-1.11.05,8.26,8.26,0,0,1-1.2-.07,2.86,2.86,0,0,1-.69-.18.64.64,0,0,1-.33-.26.79.79,0,0,1-.08-.37,3.14,3.14,0,0,1,.08-.64A9.17,9.17,0,0,1,357,425l2.78-7.54a22.88,22.88,0,0,1,1-2.47A12.62,12.62,0,0,1,362,413a8,8,0,0,1,1.36-1.43,6.31,6.31,0,0,1,1.62-.95,11.35,11.35,0,0,1-2.83-1.14A7.43,7.43,0,0,1,360,407.7a7.87,7.87,0,0,1-1.32-2.48,9.9,9.9,0,0,1-.46-3.1,11.24,11.24,0,0,1,.71-4,8.42,8.42,0,0,1,2.15-3.2,10,10,0,0,1,3.63-2.1,19.82,19.82,0,0,1,6.19-.75h7a1.79,1.79,0,0,1,1.15.43,1.83,1.83,0,0,1,.52,1.49Zm-4.5-30.91h-4.29a13.56,13.56,0,0,0-4,.45,5.82,5.82,0,0,0-2.21,1.26,4.72,4.72,0,0,0-1.23,1.92A7.38,7.38,0,0,0,363,402a7.06,7.06,0,0,0,.41,2.41,5.22,5.22,0,0,0,1.27,2,5.91,5.91,0,0,0,2.24,1.33,12,12,0,0,0,3.81.48h4.42Z"/><path class="cls-6" d="M175.19,372.19a2.13,2.13,0,0,1-.42,1.44,1.47,1.47,0,0,1-1.16.48H139a1.6,1.6,0,0,1-1.2-.48,2,2,0,0,1-.46-1.44V339.28a.6.6,0,0,1,.12-.36.78.78,0,0,1,.37-.26,3.06,3.06,0,0,1,.69-.15,10.63,10.63,0,0,1,2.15,0,3.33,3.33,0,0,1,.69.15.7.7,0,0,1,.37.26.65.65,0,0,1,.11.36v30.83H154V339.28a.6.6,0,0,1,.12-.36.79.79,0,0,1,.37-.26,3.07,3.07,0,0,1,.69-.15,8.88,8.88,0,0,1,1.07-.05,8.54,8.54,0,0,1,1.06.05,3.31,3.31,0,0,1,.69.15.79.79,0,0,1,.38.26.6.6,0,0,1,.12.36v30.83h12.2V339.28a.65.65,0,0,1,.11-.36.7.7,0,0,1,.37-.26,3.33,3.33,0,0,1,.7-.15,10.5,10.5,0,0,1,2.14,0,3.06,3.06,0,0,1,.69.15.79.79,0,0,1,.37.26.6.6,0,0,1,.12.36Z"/><path class="cls-6" d="M225.94,373.37a.75.75,0,0,1-.11.41.78.78,0,0,1-.36.27,2.61,2.61,0,0,1-.7.16,9.29,9.29,0,0,1-1.11.05,8.72,8.72,0,0,1-1.23-.07,2.53,2.53,0,0,1-.74-.21,1.1,1.1,0,0,1-.42-.34,1.55,1.55,0,0,1-.22-.51l-3.14-8.67a16,16,0,0,0-1.4-3,8.15,8.15,0,0,0-1.76-2,6.52,6.52,0,0,0-2.26-1.19,9.83,9.83,0,0,0-2.85-.38h-1.9V373.4a.69.69,0,0,1-.11.38.71.71,0,0,1-.37.26,3.86,3.86,0,0,1-.7.16,8.71,8.71,0,0,1-2.18,0,3.84,3.84,0,0,1-.71-.16.71.71,0,0,1-.37-.26.69.69,0,0,1-.11-.38V339.31a.65.65,0,0,1,.11-.36.71.71,0,0,1,.37-.26,3.83,3.83,0,0,1,.71-.17,8.72,8.72,0,0,1,2.18,0,3.85,3.85,0,0,1,.7.17.71.71,0,0,1,.37.26.65.65,0,0,1,.11.36v14.51h1.9a8.73,8.73,0,0,0,2.77-.4,6.09,6.09,0,0,0,2.1-1.19,7.78,7.78,0,0,0,1.61-2,15.87,15.87,0,0,0,1.25-2.89l2.59-7.73a2.07,2.07,0,0,1,.21-.49,1,1,0,0,1,.4-.36,2.35,2.35,0,0,1,.73-.21,8.61,8.61,0,0,1,1.2-.07,9.08,9.08,0,0,1,1.11.05,2.55,2.55,0,0,1,.67.17.62.62,0,0,1,.33.27.88.88,0,0,1,.08.38,2.8,2.8,0,0,1-.09.67c-.06.25-.15.53-.25.86l-2.72,7.38a22.41,22.41,0,0,1-1.2,2.88,10.7,10.7,0,0,1-1.36,2.07,7.42,7.42,0,0,1-1.61,1.43,7.74,7.74,0,0,1-2,.89v.05a11.73,11.73,0,0,1,2.21,1.08,8.8,8.8,0,0,1,1.78,1.52,11,11,0,0,1,1.51,2.18,24.5,24.5,0,0,1,1.35,3.06l3.22,8.45a7.22,7.22,0,0,1,.32,1A2.86,2.86,0,0,1,225.94,373.37Z"/><path class="cls-6" d="M278.78,356a28.52,28.52,0,0,1-1,7.76,16.48,16.48,0,0,1-2.92,5.88,12.78,12.78,0,0,1-4.87,3.73,16.72,16.72,0,0,1-6.84,1.3,17,17,0,0,1-6.67-1.19,11.75,11.75,0,0,1-4.65-3.47,15,15,0,0,1-2.73-5.65,30.23,30.23,0,0,1-.9-7.76,27.77,27.77,0,0,1,1-7.62,16.08,16.08,0,0,1,2.93-5.83,13,13,0,0,1,4.89-3.7,18.77,18.77,0,0,1,13.42-.12,11.94,11.94,0,0,1,4.66,3.44,14.83,14.83,0,0,1,2.77,5.59A29,29,0,0,1,278.78,356Zm-4.81.33a28.83,28.83,0,0,0-.51-5.61,13.19,13.19,0,0,0-1.71-4.5,8.4,8.4,0,0,0-3.2-3,10.44,10.44,0,0,0-5-1.07,9.81,9.81,0,0,0-5,1.15,9.46,9.46,0,0,0-3.26,3.07,13.07,13.07,0,0,0-1.79,4.48,26.07,26.07,0,0,0-.54,5.39,30.85,30.85,0,0,0,.5,5.76,13.17,13.17,0,0,0,1.69,4.54,8.21,8.21,0,0,0,3.18,3,10.59,10.59,0,0,0,5,1.06,10,10,0,0,0,5-1.15,9.15,9.15,0,0,0,3.27-3.11,13.45,13.45,0,0,0,1.77-4.54A27.19,27.19,0,0,0,274,356.29Z"/><path class="cls-6" d="M327.5,373.43a.63.63,0,0,1-.11.37.82.82,0,0,1-.37.26,2.81,2.81,0,0,1-.7.16,11,11,0,0,1-2.19,0,2.79,2.79,0,0,1-.7-.16.82.82,0,0,1-.37-.26.63.63,0,0,1-.11-.37V342.68h-9.61q-.71,6.34-1.43,11.16t-1.51,8.38a38.55,38.55,0,0,1-1.74,5.91,13.73,13.73,0,0,1-2.18,3.8,6.86,6.86,0,0,1-2.77,2,9.85,9.85,0,0,1-3.53.59,1,1,0,0,1-.48-.11.9.9,0,0,1-.36-.36,1.87,1.87,0,0,1-.21-.63,5.6,5.6,0,0,1-.07-.93,7.79,7.79,0,0,1,.07-1.12,3.4,3.4,0,0,1,.17-.71.76.76,0,0,1,.28-.38.7.7,0,0,1,.38-.11,4.19,4.19,0,0,0,1.83-.41,4.49,4.49,0,0,0,1.65-1.55A13.7,13.7,0,0,0,305,365a42.22,42.22,0,0,0,1.41-5.32q.69-3.28,1.35-7.94T309,340.74a3.18,3.18,0,0,1,.53-1.63,1.42,1.42,0,0,1,1.16-.48h15.18a1.47,1.47,0,0,1,1.16.48,2.13,2.13,0,0,1,.42,1.44Z"/><path class="cls-6" d="M381.1,372.44a3.51,3.51,0,0,1,.22,1,.69.69,0,0,1-.2.56,1.24,1.24,0,0,1-.7.25,12.14,12.14,0,0,1-1.31.05q-.82,0-1.31,0a2.87,2.87,0,0,1-.74-.14.79.79,0,0,1-.37-.26,2.1,2.1,0,0,1-.22-.41l-2.93-8.64H359.34l-2.8,8.53a1.46,1.46,0,0,1-.21.42,1,1,0,0,1-.38.3,2.27,2.27,0,0,1-.71.18,10.47,10.47,0,0,1-1.2.05,9.32,9.32,0,0,1-1.25-.07,1.24,1.24,0,0,1-.69-.26.71.71,0,0,1-.18-.56,3.47,3.47,0,0,1,.22-1l11.46-33a1.46,1.46,0,0,1,.28-.49,1.15,1.15,0,0,1,.5-.3,3.65,3.65,0,0,1,.84-.15q.52,0,1.31,0t1.4,0a4,4,0,0,1,.9.15,1.16,1.16,0,0,1,.53.32,1.49,1.49,0,0,1,.29.51Zm-14.71-29.1h0L360.48,361h11.88Z"/><rect class="cls-1" x="275.65" y="140.19" width="17.92" height="176.56"/><rect class="cls-1" x="360.03" y="140.19" width="17.92" height="176.56"/><polygon class="cls-1" points="293.57 140.19 275.65 140.19 360.03 316.75 377.95 316.75 293.57 140.19"/><polygon class="cls-7" points="293.57 140.19 275.65 140.19 360.03 316.75 377.95 316.75 293.57 140.19"/><polygon class="cls-1" points="158.65 316.75 140.72 316.75 188.76 140.19 206.69 140.19 158.65 316.75"/><polygon class="cls-7" points="237.01 316.75 254.93 316.75 206.89 140.19 188.97 140.19 237.01 316.75"/><polygon class="cls-8" points="24.55 116.08 11.51 134.08 61.05 316.75 78.98 316.75 24.55 116.08"/><polygon class="cls-8" points="116.44 114.72 131.89 123.77 79.19 316.75 61.26 316.75 116.44 114.72"/></g></g></svg>
