<?xml version="1.0" encoding="utf-8"?>
<!-- Generator: Adobe Illustrator 21.0.0, SVG Export Plug-In . SVG Version: 6.00 Build 0)  -->
<svg version="1.1" id="Шар_1" xmlns="http://www.w3.org/2000/svg" xmlns:xlink="http://www.w3.org/1999/xlink" x="0px" y="0px"
	 viewBox="0 0 512 512" style="enable-background:new 0 0 512 512;" xml:space="preserve">
<style type="text/css">
	.st0{fill:#FF9D00;}
	.st1{fill:#FFFFFF;}
</style>
<title>Здоровье и иммунитет</title>
<circle class="st0" cx="256.6" cy="256.8" r="256"/>
<path class="st1" d="M383.1,147.6H130.2c-14.5,0-26.3,11.8-26.3,26.3v165.7c0,14.5,11.8,26.3,26.3,26.3h252.8
	c14.5,0,26.3-11.8,26.3-26.3V173.9C409.4,159.4,397.6,147.6,383.1,147.6z M395.6,173.9v165.7c0,6.9-5.6,12.6-12.6,12.6H130.2
	c-6.9,0-12.6-5.6-12.6-12.6V173.9c0-0.7,0.1-1.4,0.2-2l94.8,82.7l-54,50.7c-1.3,1.2-2.1,2.9-2.2,4.8c-0.1,1.8,0.6,3.6,1.9,4.9
	c1.3,1.4,3.1,2.2,5,2.2c1.8,0,3.4-0.7,4.7-1.9l55-51.6l14.5,12.6c5.1,4.5,11.9,6.9,19.2,6.9c7.2,0,14-2.5,19.2-6.9l14.5-12.6
	l55,51.6c1.3,1.2,2.9,1.9,4.7,1.9c1.9,0,3.7-0.8,5-2.2c1.3-1.3,1.9-3.1,1.9-4.9c-0.1-1.8-0.8-3.5-2.2-4.8l-54-50.7l94.8-82.7
	C395.6,172.6,395.6,173.2,395.6,173.9z M266.8,265.9c-5.5,4.8-14.8,4.8-20.3,0L127.1,161.8c1-0.3,2.1-0.4,3.1-0.4h252.8
	c1.1,0,2.2,0.2,3.2,0.4L266.8,265.9z"/>
</svg>
