<svg xmlns="http://www.w3.org/2000/svg" xmlns:xlink="http://www.w3.org/1999/xlink" width="250" height="250"  viewBox="20 60 100 120">
	<style>.cls-5{fill:#fff;}</style>
		<path class="cls-5" d="M68.7,136.07a2.13,2.13,0,0,0,.76.16,1.9,1.9,0,0,0,1.35-.55l10.82-10.35H102a8.1,8.1,0,0,0,8.09-8.09V94.43A8.1,8.1,0,0,0,102,86.33H64.64a8.1,8.1,0,0,0-8.09,8.09v22.81a8.1,8.1,0,0,0,8.09,8.09h2.88v9A1.87,1.87,0,0,0,68.7,136.07Zm-4.08-14.62a4.21,4.21,0,0,1-4.21-4.21V94.43a4.21,4.21,0,0,1,4.21-4.21H102a4.21,4.21,0,0,1,4.21,4.21v22.81a4.21,4.21,0,0,1-4.21,4.21H80.81a1.87,1.87,0,0,0-1.33.55l-8.09,7.76v-6.35a1.93,1.93,0,0,0-1.94-1.94H64.62v0Z"/><path class="cls-5" d="M68.88,102.66H96.75a1.94,1.94,0,1,0,0-3.88H68.86a1.93,1.93,0,0,0-1.94,1.94A2,2,0,0,0,68.88,102.66Z"/><path class="cls-5" d="M98.71,111.28a1.93,1.93,0,0,0-1.94-1.94H68.88a1.94,1.94,0,1,0,0,3.88H96.77A1.94,1.94,0,0,0,98.71,111.28Z"/><path class="cls-5" d="M89.81,157.87V131.92a1.94,1.94,0,0,0-3.88,0v26a3.24,3.24,0,0,1-3.23,3.23H37.22A3.24,3.24,0,0,1,34,157.89V76a3.22,3.22,0,0,1,3.23-3.21H82.69A3.23,3.23,0,0,1,85.93,76v4.06a1.94,1.94,0,1,0,3.88,0V76a7.13,7.13,0,0,0-7.11-7.11H37.22A7.13,7.13,0,0,0,30.11,76v81.86A7.13,7.13,0,0,0,37.22,165H82.69A7.13,7.13,0,0,0,89.81,157.87Z"/><path class="cls-5" d="M65.8,149.46H54.14a1.94,1.94,0,1,0,0,3.88H65.8a1.94,1.94,0,1,0,0-3.88Z"/>
		</svg>