<?xml version="1.0" encoding="utf-8"?>
<!-- Generator: Adobe Illustrator 21.0.0, SVG Export Plug-In . SVG Version: 6.00 Build 0)  -->
<svg version="1.1" id="Шар_1" xmlns="http://www.w3.org/2000/svg" xmlns:xlink="http://www.w3.org/1999/xlink" x="0px" y="0px"
	 viewBox="0 0 512 512" style="enable-background:new 0 0 512 512;" xml:space="preserve">
<style type="text/css">
	.st0{fill:#FF9D00;}
	.st1{fill:#FF8203;}
	.st2{fill:#FFFFFF;}
</style>
<title>Здоровье и иммунитет</title>
<circle class="st0" cx="256" cy="256" r="256"/>
<g>
	<path class="st1" d="M272.1,327.9c0.9,0.4,1.8,0.6,2.8,0.6c1.9,0,3.7-0.7,5-2l40.1-38.4h75.5c16.6,0,30-13.4,30-30v-84.5
		c0-16.6-13.4-30-30-30H257.1c-16.6,0-30,13.4-30,30v84.5c0,16.6,13.4,30,30,30h10.7v33.4C267.7,324.3,269.5,326.8,272.1,327.9z
		 M257,273.7c-8.6,0-15.6-7-15.6-15.6v-84.5c0-8.6,7-15.6,15.6-15.6h138.5c8.6,0,15.6,7,15.6,15.6v84.5c0,8.6-7,15.6-15.6,15.6H317
		c-1.8,0-3.6,0.7-4.9,2l-30,28.8V281c0-4-3.2-7.2-7.1-7.2c0,0,0,0-0.1,0L257,273.7L257,273.7L257,273.7z"/>
	<path class="st1" d="M272.8,204.1h103.3c4,0,7.2-3.2,7.2-7.2c0-4-3.2-7.2-7.2-7.2c0,0,0,0,0,0H272.7c-4,0-7.2,3.2-7.2,7.1
		c0,0,0,0,0,0.1C265.7,200.8,268.8,204,272.8,204.1z"/>
	<path class="st1" d="M383.4,236c0-4-3.2-7.2-7.1-7.2c0,0,0,0-0.1,0H272.8c-4,0-7.2,3.2-7.2,7.2c0,4,3.2,7.2,7.2,7.2c0,0,0,0,0,0
		h103.4C380.1,243.2,383.4,240,383.4,236z"/>
	<path class="st2" d="M350.4,408.7v-96.2c0-4-3.2-7.2-7.2-7.2c-4,0-7.2,3.2-7.2,7.2v96.4c0,6.6-5.4,12-12,12H155.5
		c-6.6,0-12-5.4-11.9-12.1c0,0,0,0,0,0V105.3c0-6.6,5.4-11.9,12-11.9c0,0,0,0,0,0H324c6.6,0,12,5.3,12,11.9v15c0,4,3.2,7.2,7.2,7.2
		c4,0,7.2-3.2,7.2-7.2c0,0,0,0,0,0v-15c0-14.5-11.8-26.3-26.4-26.4H155.5c-14.5,0-26.3,11.8-26.4,26.4v303.4
		c0,14.6,11.8,26.4,26.4,26.5H324C338.6,435.1,350.4,423.3,350.4,408.7z"/>
	<path class="st2" d="M261.4,377.5h-43.2c-4,0-7.2,3.2-7.2,7.2c0,4,3.2,7.2,7.2,7.2h43.2c4,0,7.2-3.2,7.2-7.2
		C268.6,380.7,265.4,377.5,261.4,377.5z"/>
</g>
</svg>
