<?xml version="1.0" encoding="utf-8"?>
<!-- Generator: Adobe Illustrator 21.0.0, SVG Export Plug-In . SVG Version: 6.00 Build 0)  -->
<svg version="1.1" id="Capa_1" xmlns="http://www.w3.org/2000/svg" xmlns:xlink="http://www.w3.org/1999/xlink" x="0px" y="0px"
	 viewBox="0 0 510 510" style="enable-background:new 0 0 510 510;" xml:space="preserve">
<style type="text/css">
	.st0{fill:#FF4A08;}
</style>
<path class="st0" d="M255,0C114.8,0,0,114.8,0,255s114.8,255,255,255s255-114.8,255-255S395.3,0,255,0z M412.9,389.1l-14.6,14.3
	l-0.3-0.3c-6.2,4.8-13.3,8.9-20.9,11.9c-7.1,2.8-14.1,4.5-21.4,5.4c-3.3,0.4-80.9,7.6-177.1-88.6c-69.6-69.6-95.3-120.9-88.5-177
	c0.8-7,2.5-14,5.3-21.3c3-7.7,7.1-14.8,11.9-21l-0.4-0.4l14.5-14.5c10.6-10.6,27.5-10.9,37.7-0.7l51.3,51.3
	c10.2,10.2,9.9,27.1-0.7,37.7l-8.5,8.5l-17.3,17.3c0.9,1.6,1.8,3.3,2.8,5c9.1,16.3,21.5,38.7,45,62.2c23.5,23.5,45.8,35.9,62.1,44.9
	c1.8,1,3.5,1.9,5.1,2.8l25.8-25.8c10.6-10.6,27.5-10.9,37.7-0.7l51.3,51.3C423.7,361.6,423.4,378.5,412.9,389.1z"/>
</svg>
