<?xml version="1.0" encoding="utf-8"?>
<!-- Generator: Adobe Illustrator 21.0.0, SVG Export Plug-In . SVG Version: 6.00 Build 0)  -->
<svg version="1.1" id="Шар_1" xmlns="http://www.w3.org/2000/svg" xmlns:xlink="http://www.w3.org/1999/xlink" x="0px" y="0px"
	 viewBox="0 0 512 512" style="enable-background:new 0 0 512 512;" xml:space="preserve">
<style type="text/css">
	.st0{fill:#FF9D00;}
	.st1{fill:#FFFFFF;}
</style>
<title>Здоровье и иммунитет</title>
<circle class="st0" cx="256.3" cy="256" r="256"/>
<path class="st1" d="M402.8,346.3c-0.5-12-7.8-23.5-22.2-35.1c-42.7-34.3-58.7-18-75.7-0.8l-3,3.1c-2.7,2.7-10.8,0.2-21.2-6.5
	c-10.8-7-24.4-18.7-40.4-34.7c-50.9-50.9-41.7-61.3-41.3-61.7l3-3c17.3-17,33.6-33.1-0.7-75.8C189.5,117.3,178,110,166,109.5
	c-17.5-0.6-30.2,12.7-41.4,24.5l-0.2,0.2c-1.7,1.8-3.4,3.6-5,5.2c-12.6,12.6-12.8,39.7-0.5,72.3c13.3,35.2,39.5,73.5,73.8,107.8
	c34.3,34.3,72.6,60.5,107.8,73.8c15.9,6,30.9,9.2,43.3,9.2c12.7,0,22.8-3.3,29.1-9.6c1.5-1.5,3-2.9,4.7-4.5l0.7-0.7
	C390.1,376.4,403.5,363.7,402.8,346.3z M191.6,197.1l-3.1,3.1c-7.2,7.3-7.2,18,0,31.8c6.9,13.2,20.4,29.8,41.3,50.6
	c16.7,16.7,31.1,29,42.8,36.7c17.8,11.6,31.1,13.1,39.6,4.6l3.1-3.1c15.8-16,23.8-24.1,56.1,1.9c10.8,8.7,16.4,16.8,16.7,24.3
	c0.4,10.7-10.4,21-20,30.1c-2.1,2-3.9,3.7-5.7,5.5c-8.1,8.1-30.9,6.9-56.8-2.9c-33.3-12.5-69.7-37.5-102.6-70.4
	c-32.9-32.9-57.9-69.3-70.4-102.6c-9.8-25.9-10.9-48.7-2.9-56.8c1.7-1.7,3.5-3.5,5.3-5.5l0.2-0.2c8.9-9.4,19-20,29.5-20
	c0,0,0.1,0,0.1,0c0.2,0,0.4,0,0.6,0c7.4,0.3,15.6,6,24.3,16.7C215.7,173.3,207.6,181.2,191.6,197.1z"/>
</svg>
