<?xml version="1.0" encoding="utf-8"?>
<!-- Generator: Adobe Illustrator 21.0.0, SVG Export Plug-In . SVG Version: 6.00 Build 0)  -->
<svg version="1.1" id="Шар_1" xmlns="http://www.w3.org/2000/svg" xmlns:xlink="http://www.w3.org/1999/xlink" x="0px" y="0px"
	 viewBox="0 0 512 512" style="enable-background:new 0 0 512 512;" xml:space="preserve">
<style type="text/css">
	.st0{fill:#FF9D00;}
	.st1{fill:#FFFFFF;}
	.st2{fill:#FF8203;}
</style>
<circle class="st0" cx="256" cy="256" r="256"/>
<g>
	<path class="st1" d="M256,425.1c93.4,0,169.1-75.7,169.1-169.1S349.4,86.9,256,86.9S86.9,162.6,86.9,256l0,0
		C87,349.3,162.6,425,256,425.1z M256,100.6c85.8,0,155.4,69.6,155.4,155.4S341.8,411.4,256,411.4S100.6,341.8,100.6,256
		c0,0,0,0,0,0C100.7,170.2,170.2,100.7,256,100.6L256,100.6z"/>
	<path class="st2" d="M267.7,247h-23.4c-9.3,0-16.8-7.5-16.8-16.8c0-9.3,7.5-16.8,16.8-16.8h41.1c4.8,0,8.8-3.9,8.8-8.8
		c0-4.8-3.9-8.8-8.8-8.8c0,0,0,0,0,0h-20.7v-15.8c0-4.8-3.9-8.8-8.8-8.8c-4.8,0-8.8,3.9-8.8,8.8c0,0,0,0,0,0v15.7h-2.8
		c-19-0.6-34.9,14.3-35.5,33.3c-0.6,19,14.3,34.9,33.3,35.5c0.7,0,1.5,0,2.2,0h23.4c9.3,0,16.8,7.5,16.8,16.8
		c0,9.3-7.5,16.8-16.8,16.8h-42c-4.8,0-8.8,3.9-8.8,8.8c0,4.8,3.9,8.8,8.8,8.8h21.6v15.9c0,4.8,3.9,8.8,8.8,8.8
		c4.8,0,8.8-3.9,8.8-8.8v-15.9h2.9c19-0.6,33.9-16.5,33.3-35.5C300.4,262.1,285.9,247.5,267.7,247L267.7,247z"/>
</g>
</svg>
