<svg xmlns="http://www.w3.org/2000/svg" xmlns:xlink="http://www.w3.org/1999/xlink" width="250" height="250"  viewBox="20 70 110 90">
<style>.cls-5{fill:#fff;}</style>
	<path class="cls-5" d="M77.15,166.18a47.07,47.07,0,1,0-47.07-47.07A47.12,47.12,0,0,0,77.15,166.18Zm0-90.34a43.26,43.26,0,1,1-43.26,43.26A43.3,43.3,0,0,1,77.15,75.85Z"/><path class="cls-5" d="M80.4,116.61H73.9a4.66,4.66,0,1,1,0-9.33H85.34a2.44,2.44,0,1,0,0-4.88H79.58V98a2.44,2.44,0,1,0-4.88,0v4.36h-.77a9.58,9.58,0,1,0,0,19.15h6.5a4.67,4.67,0,0,1,0,9.35H68.73a2.44,2.44,0,0,0,0,4.88h6v4.42a2.44,2.44,0,0,0,4.88,0v-4.42h.81a9.58,9.58,0,0,0,0-19.15Z"/>
		</svg>