<?xml version="1.0" encoding="utf-8"?>
<!-- Generator: Adobe Illustrator 21.0.0, SVG Export Plug-In . SVG Version: 6.00 Build 0)  -->
<svg version="1.1" id="Шар_1" xmlns="http://www.w3.org/2000/svg" xmlns:xlink="http://www.w3.org/1999/xlink" x="0px" y="0px"
	 viewBox="0 0 512 512" style="enable-background:new 0 0 512 512;" xml:space="preserve">
<style type="text/css">
	.st0{fill:#FF9D00;}
	.st1{fill:#FFFFFF;}
	.st2{fill:#FF8203;}
</style>
<title>Здоровье и иммунитет</title>
<circle class="st0" cx="256" cy="256" r="256"/>
<g>
	<path class="st1" d="M152.9,352.7h20.5v53.9c0,2.4,1.5,4.6,3.7,5.6c0.8,0.3,1.6,0.5,2.4,0.5c1.6,0,3.1-0.6,4.2-1.7l60.8-58.3h114.2
		c16.4-0.1,31.1-10.2,37.2-25.4c1.2-3.1-0.3-6.6-3.5-7.9s-6.6,0.3-7.9,3.5l0,0c-4.2,10.6-14.5,17.6-25.9,17.6H242.1
		c-1.6,0-3.1,0.6-4.2,1.7l-52.4,50.1v-45.7c0-3.4-2.7-6.1-6.1-6.1h-26.6c-15.2-0.1-27.5-12.4-27.6-27.6V187.3
		c0.1-15.2,12.4-27.5,27.6-27.6h126.1c3.4,0,6.1-2.7,6.1-6.1s-2.7-6.1-6.1-6.1l0,0H152.9c-22,0-39.8,17.8-40,39.8v125.6
		C113,335,130.8,352.8,152.9,352.7z"/>
	<path class="st2" d="M270.1,193.7c-2.3-3-5.8-4.8-9.6-4.8h-29c-6.6,0-12,5.4-12,12v88.6c0,6.6,5.4,12,12,12h29c3,0,5.9-1.2,8.1-3.2
		c5.3,5.3,12.4,8.2,19.8,8.2h82.2c18.9,0,31.1-9.9,33.1-27.2l11.1-70.2c0-0.3,0-0.6,0-0.9c0-15.5-12.6-28.1-28.1-28.1h-40.2v-28.6
		c0-13.1-3.9-22.6-11.5-28.2c-12-8.8-28.5-3.8-29.3-3.6c-2.5,0.8-4.1,3-4.2,5.6v33.6c0,25.5-29.8,34.2-31.1,34.5L270.1,193.7z
		 M260.3,289.4h-28.7v-88.2h28.7V289.4z M272.5,205.5c0.4,0,0.9-0.1,1.3-0.2c1.7-0.4,39.9-11.6,39.9-46.3v-28.6
		c4.9-0.9,9.9,0.1,14.1,2.7c4.3,3.2,6.5,9.4,6.5,18.3v34.8c0,3.4,2.7,6.1,6.1,6.1c0,0,0,0,0,0h46.3c8.6,0,15.7,6.9,15.9,15.5
		l-11,69.9v0.2c-1.3,11.1-8.4,16.7-21.1,16.7h-82.1c-8.8,0-15.9-7.1-15.9-15.9l0,0L272.5,205.5L272.5,205.5z"/>
</g>
</svg>
