<svg xmlns="http://www.w3.org/2000/svg" xmlns:xlink="http://www.w3.org/1999/xlink" width="250" height="250"  viewBox="20 60 100 100">
<style>.cls-5{fill:#fff;}</style>
	<path class="cls-5" d="M41.47,136.93H47.4v15.63a1.77,1.77,0,0,0,1.07,1.62,1.94,1.94,0,0,0,.69.14,1.8,1.8,0,0,0,1.23-.5L68,136.93h33.08a11.7,11.7,0,0,0,10.77-7.35,1.76,1.76,0,1,0-3.28-1.28,8.12,8.12,0,0,1-7.5,5.11H67.32a1.7,1.7,0,0,0-1.21.5L50.94,148.43V135.18a1.76,1.76,0,0,0-1.76-1.76H41.47a8.06,8.06,0,0,1-8-8V89a8.06,8.06,0,0,1,8-8H78a1.76,1.76,0,0,0,0-3.53H41.47A11.59,11.59,0,0,0,29.89,89v36.4A11.57,11.57,0,0,0,41.47,136.93Z"/><path class="cls-5" d="M75.44,90.86a3.49,3.49,0,0,0-2.78-1.39h-8.4a3.48,3.48,0,0,0-3.47,3.47V118.6a3.48,3.48,0,0,0,3.47,3.47h8.4a3.47,3.47,0,0,0,2.35-.93,8.18,8.18,0,0,0,5.75,2.39h23.83c5.48,0,9-2.88,9.6-7.89l3.21-20.35a1.35,1.35,0,0,0,0-.27,8.15,8.15,0,0,0-8.14-8.14H97.61V78.58c0-3.79-1.12-6.54-3.33-8.16-3.49-2.56-8.26-1.1-8.48-1.05A1.76,1.76,0,0,0,84.58,71v9.74c0,7.39-8.64,9.92-9,10Zm-2.83,27.71H64.29V93h8.32Zm3.53-24.31a1.36,1.36,0,0,0,.37-.05c.48-.12,11.57-3.35,11.57-13.43v-8.3a5.81,5.81,0,0,1,4.1.78c1.25.93,1.89,2.71,1.89,5.31V88.64a1.76,1.76,0,0,0,1.76,1.76h13.43a4.61,4.61,0,0,1,4.61,4.49l-3.19,20.25v.05c-.39,3.21-2.44,4.83-6.11,4.83H80.77a4.61,4.61,0,0,1-4.61-4.61V94.26Z"/>
		</svg>