<svg xmlns="http://www.w3.org/2000/svg" xmlns:xlink="http://www.w3.org/1999/xlink" width="250" height="250"  viewBox="30 60 100 100">
<style>.cls-5{fill:#fff;}</style>
<path class="cls-5" d="M92,68.42a6.48,6.48,0,0,0-5.27,7.48l.2,1.15L52.28,98.4a1.62,1.62,0,0,0-.75,1.65l3.86,22.32a1.62,1.62,0,0,0,1.26,1.31l39.84,8.46.2,1.15a6.47,6.47,0,0,0,12.76-2.21l-9.93-57.4A6.48,6.48,0,0,0,92,68.42Zm14.22,63.23a3.24,3.24,0,1,1-6.38,1.1l-.39-2.23a1.62,1.62,0,0,0-1.26-1.31L58.4,120.75l-3.49-20.16L89.6,79.24a1.62,1.62,0,0,0,.75-1.65L90,75.35a3.24,3.24,0,1,1,6.38-1.1Z"/>
<path class="cls-5" d="M68.26,140.67l-1.88-1.33-7.91-17.89a1.62,1.62,0,0,0-1.76-.94L44,122.71a1.62,1.62,0,0,0-1.21,2.23l11.07,26a1.62,1.62,0,0,0,1.76,1,1.53,1.53,0,0,0,.3-.08l11.57-4.38,0,0a3.9,3.9,0,0,0,1.68-1.33,3.88,3.88,0,0,0-.91-5.42Zm-1.72,3.54a.65.65,0,0,1-.27.22l-10.09,3.82-9.66-22.69,9.5-1.64,7.58,17.15a1.62,1.62,0,0,0,.55.67l2.24,1.58a.64.64,0,0,1,.26.42A.65.65,0,0,1,66.54,144.21Z"/>
<path class="cls-5" d="M111.87,94.63,101.76,93.1A1.62,1.62,0,0,0,99.92,95l2.76,15.94a1.61,1.61,0,0,0,1.87,1.32,1.59,1.59,0,0,0,.49-.17l9-4.84a1.61,1.61,0,0,0,.83-1.7L113.23,96A1.62,1.62,0,0,0,111.87,94.63Zm-.38,10.29-6,3.23-2-11.52,6.75,1Z"/>
<path class="cls-5" d="M52.85,98.19l-11.16,1.93a12.94,12.94,0,1,0,4.41,25.51l11.16-1.93a1.62,1.62,0,0,0,1.32-1.87L54.72,99.51A1.62,1.62,0,0,0,52.85,98.19Zm2.27,22.6-9.57,1.65a9.71,9.71,0,1,1-3.31-19.13l9.57-1.65Z"/>
<rect class="cls-5" x="117.17" y="97.74" width="9.71" height="3.24" transform="translate(-15.15 22.25) rotate(-9.81)"/><rect class="cls-5" x="113.61" y="81.14" width="9.43" height="3.24" transform="translate(-25.33 97.39) rotate(-40.78)"/><rect class="cls-5" x="122.52" y="111.52" width="3.24" height="9.44" transform="translate(-29.07 190.06) rotate(-68.85)"/><rect class="cls-5" x="91.71" y="76.82" width="3.24" height="55.02" transform="translate(-16.41 17.43) rotate(-9.81)"/><rect class="cls-5" x="46.51" y="105.62" width="3.24" height="6.47" transform="translate(-17.85 9.79) rotate(-9.81)"/><rect class="cls-5" x="40.13" y="106.72" width="3.24" height="6.47" transform="translate(-18.13 8.72) rotate(-9.81)"/>
</svg>