<?xml version="1.0" encoding="utf-8"?>
<!-- Generator: Adobe Illustrator 21.0.0, SVG Export Plug-In . SVG Version: 6.00 Build 0)  -->
<svg version="1.1" id="Capa_1" xmlns="http://www.w3.org/2000/svg" xmlns:xlink="http://www.w3.org/1999/xlink" x="0px" y="0px"
	 viewBox="0 0 512 512" style="enable-background:new 0 0 512 512;" xml:space="preserve">
<style type="text/css">
	.st0{fill:#FF4A08;}
</style>
<g>
	<g>
		<g>
			<path class="st0" d="M437,75C388.7,26.6,324.4,0,256,0S123.3,26.6,75,75C26.6,123.3,0,187.6,0,256s26.6,132.7,75,181
				c48.4,48.4,112.6,75,181,75s132.7-26.6,181-75c48.4-48.4,75-112.6,75-181S485.4,123.3,437,75z M256,492
				C125.9,492,20,386.1,20,256S125.9,20,256,20s236,105.9,236,236S386.1,492,256,492z"/>
			<path class="st0" d="M408.7,103.3C367.9,62.5,313.7,40,256,40s-111.9,22.5-152.7,63.3S40,198.3,40,256s22.5,111.9,63.3,152.7
				S198.3,472,256,472s111.9-22.5,152.7-63.3S472,313.7,472,256S449.5,144.1,408.7,103.3z M266,451.7V402c0-5.5-4.5-10-10-10
				s-10,4.5-10,10v49.7C145.9,446.7,65.3,366.1,60.3,266H110c5.5,0,10-4.5,10-10s-4.5-10-10-10H60.3C65.3,145.9,145.9,65.3,246,60.3
				V110c0,5.5,4.5,10,10,10c5.5,0,10-4.5,10-10V60.3c100.1,5.1,180.7,85.6,185.7,185.7H402c-5.5,0-10,4.5-10,10c0,5.5,4.5,10,10,10
				h49.7C446.7,366.1,366.1,446.7,266,451.7z"/>
			<path class="st0" d="M290.9,211.2c-2.6,0-5.2,0.9-7.1,2.8l-14.9,14.9c-3.9-1.9-8.3-2.9-12.9-2.9s-9,1.1-12.9,2.9
				c0,0-77.9-77.9-78-78c-3.9-3.9-10.3-3.9-14.1,0c-3.9,3.9-3.9,10.2,0,14.1l78,78c-1.9,3.9-2.9,8.3-2.9,12.9c0,16.5,13.5,30,30,30
				s30-13.5,30-30c0-4.6-1.1-9-2.9-12.9c0,0,14.9-14.9,14.9-14.9c3.8-3.8,3.8-10.4,0-14.1C296.2,212.1,293.6,211.2,290.9,211.2z
				 M256,266c-5.5,0-10-4.5-10-10s4.5-10,10-10s10,4.5,10,10S261.5,266,256,266z"/>
			<circle class="st0" cx="319" cy="193" r="10"/>
		</g>
	</g>
</g>
</svg>
