<svg xmlns="http://www.w3.org/2000/svg" viewBox="0 0 509.57 509.57"><defs><style>.cls-1{fill:#ff9d00;}.cls-2{fill:#fff;}.cls-3{fill:#ff8203;}</style></defs><title>Физическую активность</title><g id="Шар_2" data-name="Шар 2"><g id="Шар_1-2" data-name="Шар 1"><path class="cls-1" d="M254.79,0C114.07,0,0,114.07,0,254.79S114.07,509.57,254.79,509.57A254.63,254.63,0,0,0,509.57,254.79C509.57,114.07,395.5,0,254.79,0Z"/><path class="cls-2" d="M157.1,134.78a33.44,33.44,0,0,1-13.86-45.16A6.68,6.68,0,1,1,155,95.88a20.07,20.07,0,0,0,8.31,27.1,6.68,6.68,0,1,1-6.26,11.8"/><path class="cls-3" d="M124.34,218.91a70,70,0,0,0,39.4-98.39c-4.21-.26-7.81,1.43-9.57,6.23-5.92,16.1-11.41,14.93-11.41,14.93s-32,14.23-39.88,48.8l-1.45,2.73a164.58,164.58,0,0,0,22.91,25.7"/><path class="cls-3" d="M191,219.1a6.68,6.68,0,1,1-2.77-9,6.68,6.68,0,0,1,2.77,9"/><path class="cls-3" d="M203.52,195.49a6.68,6.68,0,1,1-2.77-9,6.68,6.68,0,0,1,2.77,9"/><path class="cls-2" d="M358.21,406.3a18.93,18.93,0,0,1-4.38-.52c-9.66-2.29-15.77-11.78-18.15-16.2l-5.56-.93c-17.34,11.28-34.69-2.11-41.62-11.05l-1.19-1.54.31-1.92c1.17-7.33-3.56-10.17-6.49-11.22a22,22,0,0,1-20.35,3.59c-19.92-5.9-37.46-34.88-39.64-43.41-1.43-5.59-14.47-9.85-23.38-11.11-31.68-1.85-71.19-16.33-72.86-16.95l-3.37-1.24.46-3.56c.76-5.82-.2-10-2.84-12.42-4.39-4-13.13-3.2-16.13-2.54l-1.87.41-1.6-1.06C76.62,259.31,65.68,245,67.05,232.2c1.06-9.92,9-15.81,13.67-18.43-.67-6.46.65-11.93,3.94-16.29,5.92-7.83,16-8.71,16.41-8.75l2.49-.2,1.48,2C124.59,217,139,224.35,140.15,224.91c62.91,24.22,85.3,49.23,87,51.19,55.83,60.41,103,81.22,132.66,88,32,7.34,51.11.47,51.3.39l.42-.16.46-.08c4.85-.76,16.07-7.26,22-11.18l6.86-4.53.12,8.22c.2,13.89-4,24.94-12.42,32.83-15.53,14.51-39.71,12.69-40.73,12.6l-.77-.06-5.52-2.48-8.55.85C368,404.38,363.11,406.3,358.21,406.3Zm-30.3-27.15,13.93,2.34,1,2.25c1.38,3.16,6.44,11.73,13.11,13.29,3.76.88,7.91-.55,12.34-4.27l1.06-.89L383,390.51l6.25,2.81c3.8.16,21.9.28,33.17-10.28,4.78-4.48,7.78-10.43,9-17.74-5.44,3.16-12.62,6.89-17.56,7.82-3.27,1.12-23.2,7.15-55.2,0-31.13-7-80.36-28.41-138.16-91l-.13-.15c-.2-.24-21.79-25-83.56-48.73l-.22-.09c-.66-.3-16.11-7.39-37-35a14.16,14.16,0,0,0-7.7,4.8c-2.21,3-2.8,7.17-1.73,12.5l.74,3.69-3.5,1.38c-.09,0-10.45,4.3-11.32,12.68-.9,8.75,8.7,20.41,27.07,32.94,4.44-.63,15.17-1.34,22.13,5,4.25,3.87,6.26,9.44,6,16.57,10.08,3.48,41.91,13.84,67.23,15.28l.36,0c2.81.38,27.56,4.16,31,17.82,1.87,7.31,18,32.42,33.48,37,5.24,1.55,9.58.53,13.65-3.22l1.63-1.5,2.18.37c7.13,1.22,16.83,7.5,16,19.89,3.82,4.26,16.6,16.53,29.63,6.87Z"/><path class="cls-2" d="M322.33,333.27c-27.51-14.59-55.63-37.3-83.56-67.48a6.68,6.68,0,0,1,9.81-9.08c26.91,29.08,53.83,50.86,80,64.75a6.68,6.68,0,1,1-6.26,11.8"/><path class="cls-2" d="M268.68,219.95a6.68,6.68,0,0,1,1.17-12.29l34.95-10.72a6.68,6.68,0,0,1,3.92,12.77l-34.95,10.72a6.66,6.66,0,0,1-5.09-.48"/><path class="cls-2" d="M284.31,244.8a6.68,6.68,0,0,1,1.17-12.29L320,221.91A6.68,6.68,0,0,1,324,234.68l-34.56,10.6a6.66,6.66,0,0,1-5.09-.48"/><path class="cls-2" d="M301.49,264.24a6.68,6.68,0,0,1,1.17-12.29l33.13-10.17a6.68,6.68,0,1,1,3.92,12.78l-33.12,10.16a6.67,6.67,0,0,1-5.09-.48"/><path class="cls-2" d="M388.33,376.56a136.09,136.09,0,0,1-29.71-3.45c-31.13-7-80.37-28.41-138.16-91l-.13-.15c-.2-.24-21.79-25-83.56-48.73l-.24-.1c-.69-.31-17.15-8-38.72-37.28l-1.68-2.28,2.5-4.71c8.53-35.92,40.92-50.71,42.3-51.32l1.33-.59.65.14c.83-.49,3.66-2.73,7-11.91,2.4-6.52,7.79-9.86,14.79-9.16,11.76,1.18,26.46,14.1,28.08,24.67,1.52,9.94,13.21,18.78,14.17,19.49,24.47,16,39.94,12,44.53,10.08,4.59-15.82,13.24-17.76,18.12-17.48,11.93.71,23,15.53,24.54,27.8,1.34,10.59,5.35,14.4,7,15.53,4.15-.31,6.63,1.24,8,2.69,2.89,3,2.68,7.31,2.42,9.16.46,3.35,2.8,7.26,4.43,9.57a12.13,12.13,0,0,1,8.46,4.88c2.43,3.47,2.3,7.56,1.91,10l3,5.61c4.94-.27,7.93,1.55,9.65,3.3,4.06,4.14,3.74,10.58,3.3,13.65l3.82,8.12a8.41,8.41,0,0,1,1.69-.18h0c5.13,0,8.87,4.64,9.57,5.57l1.27,1.69-.49,2.06c-3.59,15,24.16,31,35.16,35.83l.29.14c22.41,11.89,37.35,22.93,44.41,32.81,6,8.45,4.51,13.6,3.9,15l-.14.29-2,3.75-1,.63c-1.71,1.13-16.66,10.89-25.11,12.48C411.73,373.83,402.84,376.56,388.33,376.56ZM227.13,276.1c107,115.81,183.19,88.74,184,88.45l.44-.17.46-.07c4.6-.72,14.93-6.61,21-10.56l.61-1.15c0-1.69-1.63-13.9-44-36.4-5.22-2.33-43.29-20.14-40.57-43.58a4.75,4.75,0,0,0-1-.66,3.2,3.2,0,0,0-.21.25l-4.48,6.1-10.47-22.25.36-1.53c.48-2.13.52-5.74-.67-6.94-.69-.71-2.43-.82-4.75-.32l-3.3.71-7.8-14.45.57-1.81c.25-.85.54-3.05-.25-4.15s-2.61-1.21-3.68-1.25l-2-.09-1.27-1.54c-.71-.86-7-8.61-7.59-16.5l-.05-.68.15-.67a4.73,4.73,0,0,0,0-1.73,5,5,0,0,0-1.56.09l-1.1.19L298.9,205c-1.14-.37-11.24-4.17-13.66-23.32-1.13-8.94-9.73-19.56-16.14-19.94-5.33-.34-8.18,7.83-9.4,12.72l-.44,1.77-1.55,1c-.87.54-21.55,12.9-55.76-9.57l-.15-.1c-.64-.46-15.73-11.4-17.88-25.48-.92-6-11.86-16.25-20.08-17.08-2.9-.29-4.47.67-5.44,3.31-5.37,14.59-11.18,17.6-14.64,17.89-4.89,2.48-29.89,16.43-36.49,45.29l-.13.58-.39.74c18.33,24.23,32.18,31.5,33.42,32.12C203.06,249.13,225.44,274.13,227.13,276.1Zm206.49,76.71Zm-85.37-81Zm-46.42-75.27Zm-159.16-59.3Z"/></g></g></svg>